# Made in Blockbench 4.12.3
mtllib table.mtl

o top_center
v 0.375 1 0.375
v 0.375 1 -0.375
v 0.375 0.875 0.375
v 0.375 0.875 -0.375
v -0.375 1 -0.375
v -0.375 1 0.375
v -0.375 0.875 -0.375
v -0.375 0.875 0.375
vt 0.875 1
vt 0.125 1
vt 0.125 0.875
vt 0.875 0.875
vt 0.125 1
vt 0.875 1
vt 0.875 0.875
vt 0.125 0.875
vt 0.125 1
vt 0.875 1
vt 0.875 0.875
vt 0.125 0.875
vt 0.125 0.875
vt 0.125 0.125
vt 0 0.125
vt 0 0.875
vt 0.125 0.125
vt 0.875 0.125
vt 0.875 0.875
vt 0.125 0.875
vt 0.125 0.875
vt 0.875 0.875
vt 0.875 0.125
vt 0.125 0.125
vn 0 0 -1
vn 1 0 0
vn 0 0 1
vn -1 0 0
vn 0 1 0
vn 0 -1 0
usemtl planks_oak
f 4/4/1 7/3/1 5/2/1 2/1/1
f 3/8/2 4/7/2 2/6/2 1/5/2
f 8/12/3 3/11/3 1/10/3 6/9/3
f 7/16/4 8/15/4 6/14/4 5/13/4
f 6/20/5 1/19/5 2/18/5 5/17/5
f 7/24/6 4/23/6 3/22/6 8/21/6
o corner_ne
v 0.49718445552179125 0.996875 -0.3646019340493136
v 0.3646019340493135 0.996875 -0.49718445552179125
v 0.49718445552179125 0.878125 -0.3646019340493136
v 0.3646019340493135 0.878125 -0.49718445552179125
v 0.27621358640099514 0.996875 -0.4087961078734728
v 0.40879610787347276 0.996875 -0.2762135864009952
v 0.27621358640099514 0.878125 -0.4087961078734728
v 0.40879610787347276 0.878125 -0.2762135864009952
vt 0.4375 1
vt 0.5625 1
vt 0.5625 0.875
vt 0.4375 0.875
vt 1 1
vt 0.8125 1
vt 0.8125 0.875
vt 1 0.875
vt 0.4375 1
vt 0.5625 1
vt 0.5625 0.875
vt 0.4375 0.875
vt 0.40625 1
vt 0.59375 1
vt 0.59375 0.875
vt 0.40625 0.875
vt 0.8125 0.875
vt 0.8125 1
vt 1 1
vt 1 0.875
vt 1 0.125
vt 1 0
vt 0.8125 0
vt 0.8125 0.125
vn -0.7071067811865476 0 -0.7071067811865475
vn 0.7071067811865475 0 -0.7071067811865476
vn 0.7071067811865476 0 0.7071067811865475
vn -0.7071067811865475 0 0.7071067811865476
vn 0 1 0
vn 0 -1 0
usemtl planks_oak
f 12/28/7 15/27/7 13/26/7 10/25/7
f 11/32/8 12/31/8 10/30/8 9/29/8
f 16/36/9 11/35/9 9/34/9 14/33/9
f 15/40/10 16/39/10 14/38/10 13/37/10
f 14/44/11 9/43/11 10/42/11 13/41/11
f 15/48/12 12/47/12 11/46/12 16/45/12
o corner_sw
v -0.27621358640099514 0.996875 0.4087961078734728
v -0.40879610787347276 0.996875 0.2762135864009952
v -0.27621358640099514 0.878125 0.4087961078734728
v -0.40879610787347276 0.878125 0.2762135864009952
v -0.49718445552179125 0.996875 0.3646019340493136
v -0.3646019340493135 0.996875 0.49718445552179125
v -0.49718445552179125 0.878125 0.3646019340493136
v -0.3646019340493135 0.878125 0.49718445552179125
vt 0.4375 1
vt 0.5625 1
vt 0.5625 0.875
vt 0.4375 0.875
vt 0.40625 1
vt 0.59375 1
vt 0.59375 0.875
vt 0.40625 0.875
vt 0.4375 1
vt 0.5625 1
vt 0.5625 0.875
vt 0.4375 0.875
vt 0 1
vt 0.1875 1
vt 0.1875 0.875
vt 0 0.875
vt 0 0.1875
vt 0.125 0.1875
vt 0.125 0
vt 0 0
vt 0 1
vt 0.125 1
vt 0.125 0.8125
vt 0 0.8125
vn -0.7071067811865476 0 -0.7071067811865475
vn 0.7071067811865475 0 -0.7071067811865476
vn 0.7071067811865476 0 0.7071067811865475
vn -0.7071067811865475 0 0.7071067811865476
vn 0 1 0
vn 0 -1 0
usemtl planks_oak
f 20/52/13 23/51/13 21/50/13 18/49/13
f 19/56/14 20/55/14 18/54/14 17/53/14
f 24/60/15 19/59/15 17/58/15 22/57/15
f 23/64/16 24/63/16 22/62/16 21/61/16
f 22/68/17 17/67/17 18/66/17 21/65/17
f 23/72/18 20/71/18 19/70/18 24/69/18
o corner_nw
v -0.2762135864009952 0.996875 -0.40879610787347276
v -0.3646019340493136 0.996875 -0.49718445552179125
v -0.2762135864009952 0.878125 -0.40879610787347276
v -0.3646019340493136 0.878125 -0.49718445552179125
v -0.49718445552179125 0.996875 -0.3646019340493135
v -0.4087961078734728 0.996875 -0.27621358640099514
v -0.49718445552179125 0.878125 -0.3646019340493135
v -0.4087961078734728 0.878125 -0.27621358640099514
vt 0 1
vt 0.1875 1
vt 0.1875 0.875
vt 0 0.875
vt 0.4375 1
vt 0.5625 1
vt 0.5625 0.875
vt 0.4375 0.875
vt 0.40625 1
vt 0.59375 1
vt 0.59375 0.875
vt 0.40625 0.875
vt 0.4375 1
vt 0.5625 1
vt 0.5625 0.875
vt 0.4375 0.875
vt 0 1
vt 0.1875 1
vt 0.1875 0.875
vt 0 0.875
vt 0.125 0.1875
vt 0.125 0
vt 0 0
vt 0 0.1875
vn -0.7071067811865476 0 -0.7071067811865475
vn 0.7071067811865475 0 -0.7071067811865476
vn 0.7071067811865476 0 0.7071067811865475
vn -0.7071067811865475 0 0.7071067811865476
vn 0 1 0
vn 0 -1 0
usemtl planks_oak
f 28/76/19 31/75/19 29/74/19 26/73/19
f 27/80/20 28/79/20 26/78/20 25/77/20
f 32/84/21 27/83/21 25/82/21 30/81/21
f 31/88/22 32/87/22 30/86/22 29/85/22
f 30/92/23 25/91/23 26/90/23 29/89/23
f 31/96/24 28/95/24 27/94/24 32/93/24
o corner_se
v 0.49718445552179125 0.996875 0.3646019340493135
v 0.4087961078734728 0.996875 0.27621358640099514
v 0.49718445552179125 0.878125 0.3646019340493135
v 0.4087961078734728 0.878125 0.27621358640099514
v 0.2762135864009952 0.996875 0.40879610787347276
v 0.3646019340493136 0.996875 0.49718445552179125
v 0.2762135864009952 0.878125 0.40879610787347276
v 0.3646019340493136 0.878125 0.49718445552179125
vt 0.40625 1
vt 0.59375 1
vt 0.59375 0.875
vt 0.40625 0.875
vt 0.4375 1
vt 0.5625 1
vt 0.5625 0.875
vt 0.4375 0.875
vt 0.8125 1
vt 1 1
vt 1 0.875
vt 0.8125 0.875
vt 0.4375 1
vt 0.5625 1
vt 0.5625 0.875
vt 0.4375 0.875
vt 0.8125 0.125
vt 1 0.125
vt 1 0
vt 0.8125 0
vt 0.8125 1
vt 1 1
vt 1 0.875
vt 0.8125 0.875
vn -0.7071067811865476 0 -0.7071067811865475
vn 0.7071067811865475 0 -0.7071067811865476
vn 0.7071067811865476 0 0.7071067811865475
vn -0.7071067811865475 0 0.7071067811865476
vn 0 1 0
vn 0 -1 0
usemtl planks_oak
f 36/100/25 39/99/25 37/98/25 34/97/25
f 35/104/26 36/103/26 34/102/26 33/101/26
f 40/108/27 35/107/27 33/106/27 38/105/27
f 39/112/28 40/111/28 38/110/28 37/109/28
f 38/116/29 33/115/29 34/114/29 37/113/29
f 39/120/30 36/119/30 35/118/30 40/117/30
o cloth_center
v 0.3125 1.0006250000000003 0.3125
v 0.3125 1.0006250000000003 -0.3125
v 0.3125 1 0.3125
v 0.3125 1 -0.3125
v -0.3125 1.0006250000000003 -0.3125
v -0.3125 1.0006250000000003 0.3125
v -0.3125 1 -0.3125
v -0.3125 1 0.3125
vt 0.8125 0.1875
vt 0.1875 0.1875
vt 0.1875 0.8125
vt 0.8125 0.8125
vt 0.8125 0.8125
vt 0.1875 0.8125
vt 0.1875 0.1875
vt 0.8125 0.1875
vn 0 1 0
vn 0 -1 0
usemtl wool_colored_white
f 46/124/31 41/123/31 42/122/31 45/121/31
f 47/128/32 44/127/32 43/126/32 48/125/32
o cloth_side_west
v -0.500625 1 0.3125
v -0.500625 1 -0.3125
v -0.500625 0.8125 0.3125
v -0.500625 0.8125 -0.3125
v -0.500625 1 -0.3125
v -0.500625 1 0.3125
v -0.500625 0.8125 -0.3125
v -0.500625 0.8125 0.3125
vt 0.1875 1
vt 0.8125 1
vt 0.8125 0.8125
vt 0.1875 0.8125
vt 0.1875 1
vt 0.8125 1
vt 0.8125 0.8125
vt 0.1875 0.8125
vn 1 0 0
vn -1 0 0
usemtl wool_colored_white
f 51/132/33 52/131/33 50/130/33 49/129/33
f 55/136/34 56/135/34 54/134/34 53/133/34
o cloth_side_east
v 0.5006250000000001 1 0.3125
v 0.5006250000000001 1 -0.3125
v 0.5006250000000001 0.8125 0.3125
v 0.5006250000000001 0.8125 -0.3125
v 0.5006250000000001 1 -0.3125
v 0.5006250000000001 1 0.3125
v 0.5006250000000001 0.8125 -0.3125
v 0.5006250000000001 0.8125 0.3125
vt 0.1875 1
vt 0.8125 1
vt 0.8125 0.8125
vt 0.1875 0.8125
vt 0.1875 1
vt 0.8125 1
vt 0.8125 0.8125
vt 0.1875 0.8125
vn 1 0 0
vn -1 0 0
usemtl wool_colored_white
f 59/140/35 60/139/35 58/138/35 57/137/35
f 63/144/36 64/143/36 62/142/36 61/141/36
o cloth_side_north
v 0.3125 1 -0.500625
v 0.3125 1 -0.500625
v 0.3125 0.8125 -0.500625
v 0.3125 0.8125 -0.500625
v -0.3125 1 -0.500625
v -0.3125 1 -0.500625
v -0.3125 0.8125 -0.500625
v -0.3125 0.8125 -0.500625
vt 0.1875 1
vt 0.8125 1
vt 0.8125 0.8125
vt 0.1875 0.8125
vt 0.1875 1
vt 0.8125 1
vt 0.8125 0.8125
vt 0.1875 0.8125
vn 0 0 -1
vn 0 0 1
usemtl wool_colored_white
f 68/148/37 71/147/37 69/146/37 66/145/37
f 72/152/38 67/151/38 65/150/38 70/149/38
o cloth_side_south
v 0.3125 1 0.5006250000000001
v 0.3125 1 0.5006250000000001
v 0.3125 0.8125 0.5006250000000001
v 0.3125 0.8125 0.5006250000000001
v -0.3125 1 0.5006250000000001
v -0.3125 1 0.5006250000000001
v -0.3125 0.8125 0.5006250000000001
v -0.3125 0.8125 0.5006250000000001
vt 0.1875 1
vt 0.8125 1
vt 0.8125 0.8125
vt 0.1875 0.8125
vt 0.1875 1
vt 0.8125 1
vt 0.8125 0.8125
vt 0.1875 0.8125
vn 0 0 -1
vn 0 0 1
usemtl wool_colored_white
f 76/156/39 79/155/39 77/154/39 74/153/39
f 80/160/40 75/159/40 73/158/40 78/157/40
o cloth_west
v -0.3125 1.0006250000000003 0.3125
v -0.3125 1.0006250000000003 -0.3125
v -0.3125 1 0.3125
v -0.3125 1 -0.3125
v -0.5 1.0006250000000003 -0.3125
v -0.5 1.0006250000000003 0.3125
v -0.5 1 -0.3125
v -0.5 1 0.3125
vt 1 0.1875
vt 0.8125 0.1875
vt 0.8125 0.8125
vt 1 0.8125
vt 1 0.8125
vt 0.8125 0.8125
vt 0.8125 0.1875
vt 1 0.1875
vn 0 1 0
vn 0 -1 0
usemtl wool_colored_white
f 86/164/41 81/163/41 82/162/41 85/161/41
f 87/168/42 84/167/42 83/166/42 88/165/42
o cloth_south
v 0.3125 1.0006250000000003 0.5
v 0.3125 1.0006250000000003 0.3125
v 0.3125 1 0.5
v 0.3125 1 0.3125
v -0.3125 1.0006250000000003 0.3125
v -0.3125 1.0006250000000003 0.5
v -0.3125 1 0.3125
v -0.3125 1 0.5
vt 0.8125 0.8125
vt 0.1875 0.8125
vt 0.1875 1
vt 0.8125 1
vt 0.8125 1
vt 0.1875 1
vt 0.1875 0.8125
vt 0.8125 0.8125
vn 0 1 0
vn 0 -1 0
usemtl wool_colored_white
f 94/172/43 89/171/43 90/170/43 93/169/43
f 95/176/44 92/175/44 91/174/44 96/173/44
o leg_sw
v -0.1875 0.125 0.3125
v -0.1875 0.125 0.1875
v -0.1875 0 0.3125
v -0.1875 0 0.1875
v -0.3125 0.125 0.1875
v -0.3125 0.125 0.3125
v -0.3125 0 0.1875
v -0.3125 0 0.3125
vt 0.6875 0.125
vt 0.8125 0.125
vt 0.8125 0
vt 0.6875 0
vt 0.1875 0.125
vt 0.3125 0.125
vt 0.3125 0
vt 0.1875 0
vt 0.1875 0.125
vt 0.3125 0.125
vt 0.3125 0
vt 0.1875 0
vt 0.6875 0.125
vt 0.8125 0.125
vt 0.8125 0
vt 0.6875 0
vt 0.1875 0.3125
vt 0.3125 0.3125
vt 0.3125 0.1875
vt 0.1875 0.1875
vt 0.1875 0.8125
vt 0.3125 0.8125
vt 0.3125 0.6875
vt 0.1875 0.6875
vn 0 0 -1
vn 1 0 0
vn 0 0 1
vn -1 0 0
vn 0 1 0
vn 0 -1 0
usemtl planks_oak
f 100/180/45 103/179/45 101/178/45 98/177/45
f 99/184/46 100/183/46 98/182/46 97/181/46
f 104/188/47 99/187/47 97/186/47 102/185/47
f 103/192/48 104/191/48 102/190/48 101/189/48
f 102/196/49 97/195/49 98/194/49 101/193/49
f 103/200/50 100/199/50 99/198/50 104/197/50
o leg_sw
v -0.21875 0.1875 0.28125
v -0.21875 0.1875 0.21875
v -0.21875 0.125 0.28125
v -0.21875 0.125 0.21875
v -0.28125 0.1875 0.21875
v -0.28125 0.1875 0.28125
v -0.28125 0.125 0.21875
v -0.28125 0.125 0.28125
vt 0.71875 0.1875
vt 0.78125 0.1875
vt 0.78125 0.125
vt 0.71875 0.125
vt 0.21875 0.1875
vt 0.28125 0.1875
vt 0.28125 0.125
vt 0.21875 0.125
vt 0.21875 0.1875
vt 0.28125 0.1875
vt 0.28125 0.125
vt 0.21875 0.125
vt 0.71875 0.1875
vt 0.78125 0.1875
vt 0.78125 0.125
vt 0.71875 0.125
vt 0.21875 0.28125
vt 0.28125 0.28125
vt 0.28125 0.21875
vt 0.21875 0.21875
vt 0.21875 0.28125
vt 0.28125 0.28125
vt 0.28125 0.21875
vt 0.21875 0.21875
vn 0 0 -1
vn 1 0 0
vn 0 0 1
vn -1 0 0
vn 0 1 0
vn 0 -1 0
usemtl planks_oak
f 108/204/51 111/203/51 109/202/51 106/201/51
f 107/208/52 108/207/52 106/206/52 105/205/52
f 112/212/53 107/211/53 105/210/53 110/209/53
f 111/216/54 112/215/54 110/214/54 109/213/54
f 110/220/55 105/219/55 106/218/55 109/217/55
f 111/224/56 108/223/56 107/222/56 112/221/56
o leg_sw
v -0.1875 0.875 0.3125
v -0.1875 0.875 0.1875
v -0.1875 0.1875 0.3125
v -0.1875 0.1875 0.1875
v -0.3125 0.875 0.1875
v -0.3125 0.875 0.3125
v -0.3125 0.1875 0.1875
v -0.3125 0.1875 0.3125
vt 0.6875 0.875
vt 0.8125 0.875
vt 0.8125 0.1875
vt 0.6875 0.1875
vt 0.1875 0.875
vt 0.3125 0.875
vt 0.3125 0.1875
vt 0.1875 0.1875
vt 0.1875 0.875
vt 0.3125 0.875
vt 0.3125 0.1875
vt 0.1875 0.1875
vt 0.6875 0.875
vt 0.8125 0.875
vt 0.8125 0.1875
vt 0.6875 0.1875
vt 0.1875 0.3125
vt 0.3125 0.3125
vt 0.3125 0.1875
vt 0.1875 0.1875
vt 0.1875 0.3125
vt 0.3125 0.3125
vt 0.3125 0.1875
vt 0.1875 0.1875
vn 0 0 -1
vn 1 0 0
vn 0 0 1
vn -1 0 0
vn 0 1 0
vn 0 -1 0
usemtl planks_oak
f 116/228/57 119/227/57 117/226/57 114/225/57
f 115/232/58 116/231/58 114/230/58 113/229/58
f 120/236/59 115/235/59 113/234/59 118/233/59
f 119/240/60 120/239/60 118/238/60 117/237/60
f 118/244/61 113/243/61 114/242/61 117/241/61
f 119/248/62 116/247/62 115/246/62 120/245/62
o leg_se
v 0.3125 0.875 0.3125
v 0.3125 0.875 0.1875
v 0.3125 0.1875 0.3125
v 0.3125 0.1875 0.1875
v 0.1875 0.875 0.1875
v 0.1875 0.875 0.3125
v 0.1875 0.1875 0.1875
v 0.1875 0.1875 0.3125
vt 0.1875 0.875
vt 0.3125 0.875
vt 0.3125 0.1875
vt 0.1875 0.1875
vt 0.1875 0.875
vt 0.3125 0.875
vt 0.3125 0.1875
vt 0.1875 0.1875
vt 0.6875 0.875
vt 0.8125 0.875
vt 0.8125 0.1875
vt 0.6875 0.1875
vt 0.6875 0.875
vt 0.8125 0.875
vt 0.8125 0.1875
vt 0.6875 0.1875
vt 0.6875 0.3125
vt 0.8125 0.3125
vt 0.8125 0.1875
vt 0.6875 0.1875
vt 0.6875 0.3125
vt 0.8125 0.3125
vt 0.8125 0.1875
vt 0.6875 0.1875
vn 0 0 -1
vn 1 0 0
vn 0 0 1
vn -1 0 0
vn 0 1 0
vn 0 -1 0
usemtl planks_oak
f 124/252/63 127/251/63 125/250/63 122/249/63
f 123/256/64 124/255/64 122/254/64 121/253/64
f 128/260/65 123/259/65 121/258/65 126/257/65
f 127/264/66 128/263/66 126/262/66 125/261/66
f 126/268/67 121/267/67 122/266/67 125/265/67
f 127/272/68 124/271/68 123/270/68 128/269/68
o leg_se
v 0.3125 0.125 0.3125
v 0.3125 0.125 0.1875
v 0.3125 0 0.3125
v 0.3125 0 0.1875
v 0.1875 0.125 0.1875
v 0.1875 0.125 0.3125
v 0.1875 0 0.1875
v 0.1875 0 0.3125
vt 0.1875 0.125
vt 0.3125 0.125
vt 0.3125 0
vt 0.1875 0
vt 0.1875 0.125
vt 0.3125 0.125
vt 0.3125 0
vt 0.1875 0
vt 0.6875 0.125
vt 0.8125 0.125
vt 0.8125 0
vt 0.6875 0
vt 0.6875 0.125
vt 0.8125 0.125
vt 0.8125 0
vt 0.6875 0
vt 0.6875 0.3125
vt 0.8125 0.3125
vt 0.8125 0.1875
vt 0.6875 0.1875
vt 0.6875 0.8125
vt 0.8125 0.8125
vt 0.8125 0.6875
vt 0.6875 0.6875
vn 0 0 -1
vn 1 0 0
vn 0 0 1
vn -1 0 0
vn 0 1 0
vn 0 -1 0
usemtl planks_oak
f 132/276/69 135/275/69 133/274/69 130/273/69
f 131/280/70 132/279/70 130/278/70 129/277/70
f 136/284/71 131/283/71 129/282/71 134/281/71
f 135/288/72 136/287/72 134/286/72 133/285/72
f 134/292/73 129/291/73 130/290/73 133/289/73
f 135/296/74 132/295/74 131/294/74 136/293/74
o leg_se
v 0.28125 0.1875 0.28125
v 0.28125 0.1875 0.21875
v 0.28125 0.125 0.28125
v 0.28125 0.125 0.21875
v 0.21875 0.1875 0.21875
v 0.21875 0.1875 0.28125
v 0.21875 0.125 0.21875
v 0.21875 0.125 0.28125
vt 0.21875 0.1875
vt 0.28125 0.1875
vt 0.28125 0.125
vt 0.21875 0.125
vt 0.21875 0.1875
vt 0.28125 0.1875
vt 0.28125 0.125
vt 0.21875 0.125
vt 0.71875 0.1875
vt 0.78125 0.1875
vt 0.78125 0.125
vt 0.71875 0.125
vt 0.71875 0.1875
vt 0.78125 0.1875
vt 0.78125 0.125
vt 0.71875 0.125
vt 0.71875 0.28125
vt 0.78125 0.28125
vt 0.78125 0.21875
vt 0.71875 0.21875
vt 0.71875 0.28125
vt 0.78125 0.28125
vt 0.78125 0.21875
vt 0.71875 0.21875
vn 0 0 -1
vn 1 0 0
vn 0 0 1
vn -1 0 0
vn 0 1 0
vn 0 -1 0
usemtl planks_oak
f 140/300/75 143/299/75 141/298/75 138/297/75
f 139/304/76 140/303/76 138/302/76 137/301/76
f 144/308/77 139/307/77 137/306/77 142/305/77
f 143/312/78 144/311/78 142/310/78 141/309/78
f 142/316/79 137/315/79 138/314/79 141/313/79
f 143/320/80 140/319/80 139/318/80 144/317/80
o carpet
v 0.5 0.0625 0.5
v 0.5 0.0625 -0.5
v 0.5 0 0.5
v 0.5 0 -0.5
v -0.5 0.0625 -0.5
v -0.5 0.0625 0.5
v -0.5 0 -0.5
v -0.5 0 0.5
vt 0 1
vt 1 1
vt 1 0.9375
vt 0 0.9375
vt 0 1
vt 1 1
vt 1 0.9375
vt 0 0.9375
vt 0 1
vt 1 1
vt 1 0.9375
vt 0 0.9375
vt 0 1
vt 1 1
vt 1 0.9375
vt 0 0.9375
vt 0 0
vt 0 1
vt 1 1
vt 1 0
vt 0 1
vt 1 1
vt 1 0
vt 0 0
vn 0 0 -1
vn 1 0 0
vn 0 0 1
vn -1 0 0
vn 0 1 0
vn 0 -1 0
usemtl wool_colored_white
f 148/324/81 151/323/81 149/322/81 146/321/81
f 147/328/82 148/327/82 146/326/82 145/325/82
f 152/332/83 147/331/83 145/330/83 150/329/83
f 151/336/84 152/335/84 150/334/84 149/333/84
f 150/340/85 145/339/85 146/338/85 149/337/85
f 151/344/86 148/343/86 147/342/86 152/341/86
o leg_ne
v 0.3125 0.125 -0.1875
v 0.3125 0.125 -0.3125
v 0.3125 0 -0.1875
v 0.3125 0 -0.3125
v 0.1875 0.125 -0.3125
v 0.1875 0.125 -0.1875
v 0.1875 0 -0.3125
v 0.1875 0 -0.1875
vt 0.1875 0.125
vt 0.3125 0.125
vt 0.3125 0
vt 0.1875 0
vt 0.6875 0.125
vt 0.8125 0.125
vt 0.8125 0
vt 0.6875 0
vt 0.6875 0.125
vt 0.8125 0.125
vt 0.8125 0
vt 0.6875 0
vt 0.1875 0.125
vt 0.3125 0.125
vt 0.3125 0
vt 0.1875 0
vt 0.3125 0.1875
vt 0.1875 0.1875
vt 0.1875 0.3125
vt 0.3125 0.3125
vt 0.3125 0.6875
vt 0.1875 0.6875
vt 0.1875 0.8125
vt 0.3125 0.8125
vn 0 0 -1
vn 1 0 0
vn 0 0 1
vn -1 0 0
vn 0 1 0
vn 0 -1 0
usemtl planks_oak
f 156/348/87 159/347/87 157/346/87 154/345/87
f 155/352/88 156/351/88 154/350/88 153/349/88
f 160/356/89 155/355/89 153/354/89 158/353/89
f 159/360/90 160/359/90 158/358/90 157/357/90
f 158/364/91 153/363/91 154/362/91 157/361/91
f 159/368/92 156/367/92 155/366/92 160/365/92
o leg_ne
v 0.3125 0.875 -0.1875
v 0.3125 0.875 -0.3125
v 0.3125 0.1875 -0.1875
v 0.3125 0.1875 -0.3125
v 0.1875 0.875 -0.3125
v 0.1875 0.875 -0.1875
v 0.1875 0.1875 -0.3125
v 0.1875 0.1875 -0.1875
vt 0.1875 0.875
vt 0.3125 0.875
vt 0.3125 0.1875
vt 0.1875 0.1875
vt 0.6875 0.875
vt 0.8125 0.875
vt 0.8125 0.1875
vt 0.6875 0.1875
vt 0.6875 0.875
vt 0.8125 0.875
vt 0.8125 0.1875
vt 0.6875 0.1875
vt 0.1875 0.875
vt 0.3125 0.875
vt 0.3125 0.1875
vt 0.1875 0.1875
vt 0.3125 0.1875
vt 0.1875 0.1875
vt 0.1875 0.3125
vt 0.3125 0.3125
vt 0.3125 0.1875
vt 0.1875 0.1875
vt 0.1875 0.3125
vt 0.3125 0.3125
vn 0 0 -1
vn 1 0 0
vn 0 0 1
vn -1 0 0
vn 0 1 0
vn 0 -1 0
usemtl planks_oak
f 164/372/93 167/371/93 165/370/93 162/369/93
f 163/376/94 164/375/94 162/374/94 161/373/94
f 168/380/95 163/379/95 161/378/95 166/377/95
f 167/384/96 168/383/96 166/382/96 165/381/96
f 166/388/97 161/387/97 162/386/97 165/385/97
f 167/392/98 164/391/98 163/390/98 168/389/98
o leg_ne
v 0.28125 0.1875 -0.21875
v 0.28125 0.1875 -0.28125
v 0.28125 0.125 -0.21875
v 0.28125 0.125 -0.28125
v 0.21875 0.1875 -0.28125
v 0.21875 0.1875 -0.21875
v 0.21875 0.125 -0.28125
v 0.21875 0.125 -0.21875
vt 0.21875 0.1875
vt 0.28125 0.1875
vt 0.28125 0.125
vt 0.21875 0.125
vt 0.71875 0.1875
vt 0.78125 0.1875
vt 0.78125 0.125
vt 0.71875 0.125
vt 0.71875 0.1875
vt 0.78125 0.1875
vt 0.78125 0.125
vt 0.71875 0.125
vt 0.21875 0.1875
vt 0.28125 0.1875
vt 0.28125 0.125
vt 0.21875 0.125
vt 0.28125 0.21875
vt 0.21875 0.21875
vt 0.21875 0.28125
vt 0.28125 0.28125
vt 0.28125 0.21875
vt 0.21875 0.21875
vt 0.21875 0.28125
vt 0.28125 0.28125
vn 0 0 -1
vn 1 0 0
vn 0 0 1
vn -1 0 0
vn 0 1 0
vn 0 -1 0
usemtl planks_oak
f 172/396/99 175/395/99 173/394/99 170/393/99
f 171/400/100 172/399/100 170/398/100 169/397/100
f 176/404/101 171/403/101 169/402/101 174/401/101
f 175/408/102 176/407/102 174/406/102 173/405/102
f 174/412/103 169/411/103 170/410/103 173/409/103
f 175/416/104 172/415/104 171/414/104 176/413/104
o leg_nw
v -0.1875 0.125 -0.1875
v -0.1875 0.125 -0.3125
v -0.1875 0 -0.1875
v -0.1875 0 -0.3125
v -0.3125 0.125 -0.3125
v -0.3125 0.125 -0.1875
v -0.3125 0 -0.3125
v -0.3125 0 -0.1875
vt 0.6875 0.125
vt 0.8125 0.125
vt 0.8125 0
vt 0.6875 0
vt 0.6875 0.125
vt 0.8125 0.125
vt 0.8125 0
vt 0.6875 0
vt 0.1875 0.125
vt 0.3125 0.125
vt 0.3125 0
vt 0.1875 0
vt 0.1875 0.125
vt 0.3125 0.125
vt 0.3125 0
vt 0.1875 0
vt 0.8125 0.1875
vt 0.6875 0.1875
vt 0.6875 0.3125
vt 0.8125 0.3125
vt 0.8125 0.6875
vt 0.6875 0.6875
vt 0.6875 0.8125
vt 0.8125 0.8125
vn 0 0 -1
vn 1 0 0
vn 0 0 1
vn -1 0 0
vn 0 1 0
vn 0 -1 0
usemtl planks_oak
f 180/420/105 183/419/105 181/418/105 178/417/105
f 179/424/106 180/423/106 178/422/106 177/421/106
f 184/428/107 179/427/107 177/426/107 182/425/107
f 183/432/108 184/431/108 182/430/108 181/429/108
f 182/436/109 177/435/109 178/434/109 181/433/109
f 183/440/110 180/439/110 179/438/110 184/437/110
o leg_nw
v -0.1875 0.875 -0.1875
v -0.1875 0.875 -0.3125
v -0.1875 0.1875 -0.1875
v -0.1875 0.1875 -0.3125
v -0.3125 0.875 -0.3125
v -0.3125 0.875 -0.1875
v -0.3125 0.1875 -0.3125
v -0.3125 0.1875 -0.1875
vt 0.6875 0.875
vt 0.8125 0.875
vt 0.8125 0.1875
vt 0.6875 0.1875
vt 0.6875 0.875
vt 0.8125 0.875
vt 0.8125 0.1875
vt 0.6875 0.1875
vt 0.1875 0.875
vt 0.3125 0.875
vt 0.3125 0.1875
vt 0.1875 0.1875
vt 0.1875 0.875
vt 0.3125 0.875
vt 0.3125 0.1875
vt 0.1875 0.1875
vt 0.8125 0.1875
vt 0.6875 0.1875
vt 0.6875 0.3125
vt 0.8125 0.3125
vt 0.8125 0.1875
vt 0.6875 0.1875
vt 0.6875 0.3125
vt 0.8125 0.3125
vn 0 0 -1
vn 1 0 0
vn 0 0 1
vn -1 0 0
vn 0 1 0
vn 0 -1 0
usemtl planks_oak
f 188/444/111 191/443/111 189/442/111 186/441/111
f 187/448/112 188/447/112 186/446/112 185/445/112
f 192/452/113 187/451/113 185/450/113 190/449/113
f 191/456/114 192/455/114 190/454/114 189/453/114
f 190/460/115 185/459/115 186/458/115 189/457/115
f 191/464/116 188/463/116 187/462/116 192/461/116
o leg_nw
v -0.21875 0.1875 -0.21875
v -0.21875 0.1875 -0.28125
v -0.21875 0.125 -0.21875
v -0.21875 0.125 -0.28125
v -0.28125 0.1875 -0.28125
v -0.28125 0.1875 -0.21875
v -0.28125 0.125 -0.28125
v -0.28125 0.125 -0.21875
vt 0.71875 0.1875
vt 0.78125 0.1875
vt 0.78125 0.125
vt 0.71875 0.125
vt 0.71875 0.1875
vt 0.78125 0.1875
vt 0.78125 0.125
vt 0.71875 0.125
vt 0.21875 0.1875
vt 0.28125 0.1875
vt 0.28125 0.125
vt 0.21875 0.125
vt 0.21875 0.1875
vt 0.28125 0.1875
vt 0.28125 0.125
vt 0.21875 0.125
vt 0.78125 0.21875
vt 0.71875 0.21875
vt 0.71875 0.28125
vt 0.78125 0.28125
vt 0.78125 0.21875
vt 0.71875 0.21875
vt 0.71875 0.28125
vt 0.78125 0.28125
vn 0 0 -1
vn 1 0 0
vn 0 0 1
vn -1 0 0
vn 0 1 0
vn 0 -1 0
usemtl planks_oak
f 196/468/117 199/467/117 197/466/117 194/465/117
f 195/472/118 196/471/118 194/470/118 193/469/118
f 200/476/119 195/475/119 193/474/119 198/473/119
f 199/480/120 200/479/120 198/478/120 197/477/120
f 198/484/121 193/483/121 194/482/121 197/481/121
f 199/488/122 196/487/122 195/486/122 200/485/122
o top_west
v -0.375 1 0.375
v -0.375 1 -0.375
v -0.375 0.875 0.375
v -0.375 0.875 -0.375
v -0.5 1 -0.375
v -0.5 1 0.375
v -0.5 0.875 -0.375
v -0.5 0.875 0.375
vt 0 1
vt 0.125 1
vt 0.125 0.875
vt 0 0.875
vt 0.125 1
vt 0.875 1
vt 0.875 0.875
vt 0.125 0.875
vt 0 1
vt 0.125 1
vt 0.125 0.875
vt 0 0.875
vt 0 0.125
vt 0 0.875
vt 0.125 0.875
vt 0.125 0.125
vt 0 0.125
vt 0.125 0.125
vt 0.125 0.875
vt 0 0.875
vt 0 0.875
vt 0.125 0.875
vt 0.125 0.125
vt 0 0.125
vn 0 0 -1
vn 1 0 0
vn 0 0 1
vn -1 0 0
vn 0 1 0
vn 0 -1 0
usemtl planks_oak
f 204/492/123 207/491/123 205/490/123 202/489/123
f 203/496/124 204/495/124 202/494/124 201/493/124
f 208/500/125 203/499/125 201/498/125 206/497/125
f 207/504/126 208/503/126 206/502/126 205/501/126
f 206/508/127 201/507/127 202/506/127 205/505/127
f 207/512/128 204/511/128 203/510/128 208/509/128
o top_south
v 0.375 1 0.5
v 0.375 1 0.375
v 0.375 0.875 0.5
v 0.375 0.875 0.375
v -0.375 1 0.375
v -0.375 1 0.5
v -0.375 0.875 0.375
v -0.375 0.875 0.5
vt 0.125 1
vt 0.875 1
vt 0.875 0.875
vt 0.125 0.875
vt 0 1
vt 0.125 1
vt 0.125 0.875
vt 0 0.875
vt 0.125 0.125
vt 0.875 0.125
vt 0.875 0
vt 0.125 0
vt 0.875 1
vt 1 1
vt 1 0.875
vt 0.875 0.875
vt 0.125 0.125
vt 0.875 0.125
vt 0.875 0
vt 0.125 0
vt 0.125 0
vt 0.875 0
vt 0.875 0.125
vt 0.125 0.125
vn 0 0 -1
vn 1 0 0
vn 0 0 1
vn -1 0 0
vn 0 1 0
vn 0 -1 0
usemtl planks_oak
f 212/516/129 215/515/129 213/514/129 210/513/129
f 211/520/130 212/519/130 210/518/130 209/517/130
f 216/524/131 211/523/131 209/522/131 214/521/131
f 215/528/132 216/527/132 214/526/132 213/525/132
f 214/532/133 209/531/133 210/530/133 213/529/133
f 215/536/134 212/535/134 211/534/134 216/533/134
o top_east
v 0.5 1 0.375
v 0.5 1 -0.375
v 0.5 0.875 0.375
v 0.5 0.875 -0.375
v 0.375 1 -0.375
v 0.375 1 0.375
v 0.375 0.875 -0.375
v 0.375 0.875 0.375
vt 1 1
vt 0.875 1
vt 0.875 0.875
vt 1 0.875
vt 0.875 0.875
vt 0.875 0.125
vt 1 0.125
vt 1 0.875
vt 0.875 1
vt 1 1
vt 1 0.875
vt 0.875 0.875
vt 0.125 1
vt 0.875 1
vt 0.875 0.875
vt 0.125 0.875
vt 0.875 0.125
vt 1 0.125
vt 1 0.875
vt 0.875 0.875
vt 0.875 0.875
vt 1 0.875
vt 1 0.125
vt 0.875 0.125
vn 0 0 -1
vn 1 0 0
vn 0 0 1
vn -1 0 0
vn 0 1 0
vn 0 -1 0
usemtl planks_oak
f 220/540/135 223/539/135 221/538/135 218/537/135
f 219/544/136 220/543/136 218/542/136 217/541/136
f 224/548/137 219/547/137 217/546/137 222/545/137
f 223/552/138 224/551/138 222/550/138 221/549/138
f 222/556/139 217/555/139 218/554/139 221/553/139
f 223/560/140 220/559/140 219/558/140 224/557/140
o top_north
v 0.375 1 -0.375
v 0.375 1 -0.5
v 0.375 0.875 -0.375
v 0.375 0.875 -0.5
v -0.375 1 -0.5
v -0.375 1 -0.375
v -0.375 0.875 -0.5
v -0.375 0.875 -0.375
vt 0.875 1
vt 0.125 1
vt 0.125 0.875
vt 0.875 0.875
vt 1 1
vt 0.875 1
vt 0.875 0.875
vt 1 0.875
vt 0.125 1
vt 0.875 1
vt 0.875 0.875
vt 0.125 0.875
vt 0 1
vt 0.125 1
vt 0.125 0.875
vt 0 0.875
vt 0.125 1
vt 0.875 1
vt 0.875 0.875
vt 0.125 0.875
vt 0.125 0.875
vt 0.875 0.875
vt 0.875 1
vt 0.125 1
vn 0 0 -1
vn 1 0 0
vn 0 0 1
vn -1 0 0
vn 0 1 0
vn 0 -1 0
usemtl planks_oak
f 228/564/141 231/563/141 229/562/141 226/561/141
f 227/568/142 228/567/142 226/566/142 225/565/142
f 232/572/143 227/571/143 225/570/143 230/569/143
f 231/576/144 232/575/144 230/574/144 229/573/144
f 230/580/145 225/579/145 226/578/145 229/577/145
f 231/584/146 228/583/146 227/582/146 232/581/146
o connected_nw
v -0.375 1 -0.375
v -0.375 1 -0.5
v -0.375 0.875 -0.375
v -0.375 0.875 -0.5
v -0.5 1 -0.5
v -0.5 1 -0.375
v -0.5 0.875 -0.5
v -0.5 0.875 -0.375
vt 0 1
vt 0.125 1
vt 0.125 0.875
vt 0 0.875
vt 0.875 1
vt 1 1
vt 1 0.875
vt 0.875 0.875
vt 0 1
vt 1 1
vt 1 0.875
vt 0 0.875
vt 0 0.875
vt 0 1
vt 0.125 1
vt 0.125 0.875
vt 0 1
vt 0.125 1
vt 0.125 0.875
vt 0 0.875
vt 0 0.875
vt 0.125 0.875
vt 0.125 1
vt 0 1
vn 0 0 -1
vn 1 0 0
vn 0 0 1
vn -1 0 0
vn 0 1 0
vn 0 -1 0
usemtl planks_oak
f 236/588/147 239/587/147 237/586/147 234/585/147
f 235/592/148 236/591/148 234/590/148 233/589/148
f 240/596/149 235/595/149 233/594/149 238/593/149
f 239/600/150 240/599/150 238/598/150 237/597/150
f 238/604/151 233/603/151 234/602/151 237/601/151
f 239/608/152 236/607/152 235/606/152 240/605/152
o connected_ne
v 0.5 1 -0.375
v 0.5 1 -0.5
v 0.5 0.875 -0.375
v 0.5 0.875 -0.5
v 0.375 1 -0.5
v 0.375 1 -0.375
v 0.375 0.875 -0.5
v 0.375 0.875 -0.375
vt 1 1
vt 0.875 1
vt 0.875 0.875
vt 1 0.875
vt 0.875 1
vt 0.875 0.875
vt 1 0.875
vt 1 1
vt 0.875 1
vt 1 1
vt 1 0.875
vt 0.875 0.875
vt 1 1
vt 0 1
vt 0 0.875
vt 1 0.875
vt 0.875 1
vt 1 1
vt 1 0.875
vt 0.875 0.875
vt 0.875 0.875
vt 1 0.875
vt 1 1
vt 0.875 1
vn 0 0 -1
vn 1 0 0
vn 0 0 1
vn -1 0 0
vn 0 1 0
vn 0 -1 0
usemtl planks_oak
f 244/612/153 247/611/153 245/610/153 242/609/153
f 243/616/154 244/615/154 242/614/154 241/613/154
f 248/620/155 243/619/155 241/618/155 246/617/155
f 247/624/156 248/623/156 246/622/156 245/621/156
f 246/628/157 241/627/157 242/626/157 245/625/157
f 247/632/158 244/631/158 243/630/158 248/629/158
o connected_sw
v -0.375 1 0.5
v -0.375 1 0.375
v -0.375 0.875 0.5
v -0.375 0.875 0.375
v -0.5 1 0.375
v -0.5 1 0.5
v -0.5 0.875 0.375
v -0.5 0.875 0.5
vt 1 1
vt 0 1
vt 0 0.875
vt 1 0.875
vt 0 1
vt 0.125 1
vt 0.125 0.875
vt 0 0.875
vt 0 0.125
vt 0.125 0.125
vt 0.125 0
vt 0 0
vt 0 0.125
vt 0 0
vt 0.125 0
vt 0.125 0.125
vt 0 0.125
vt 0.125 0.125
vt 0.125 0
vt 0 0
vt 0 0
vt 0.125 0
vt 0.125 0.125
vt 0 0.125
vn 0 0 -1
vn 1 0 0
vn 0 0 1
vn -1 0 0
vn 0 1 0
vn 0 -1 0
usemtl planks_oak
f 252/636/159 255/635/159 253/634/159 250/633/159
f 251/640/160 252/639/160 250/638/160 249/637/160
f 256/644/161 251/643/161 249/642/161 254/641/161
f 255/648/162 256/647/162 254/646/162 253/645/162
f 254/652/163 249/651/163 250/650/163 253/649/163
f 255/656/164 252/655/164 251/654/164 256/653/164
o connected_se
v 0.5 1 0.5
v 0.5 1 0.375
v 0.5 0.875 0.5
v 0.5 0.875 0.375
v 0.375 1 0.375
v 0.375 1 0.5
v 0.375 0.875 0.375
v 0.375 0.875 0.5
vt 0.125 1
vt 0 1
vt 0 0.875
vt 0.125 0.875
vt 0.875 0
vt 0.875 0.125
vt 1 0.125
vt 1 0
vt 0.875 0.125
vt 1 0.125
vt 1 0
vt 0.875 0
vt 0.125 1
vt 0.125 0
vt 0 0
vt 0 1
vt 0.875 0.125
vt 1 0.125
vt 1 0
vt 0.875 0
vt 0.875 0
vt 1 0
vt 1 0.125
vt 0.875 0.125
vn 0 0 -1
vn 1 0 0
vn 0 0 1
vn -1 0 0
vn 0 1 0
vn 0 -1 0
usemtl planks_oak
f 260/660/165 263/659/165 261/658/165 258/657/165
f 259/664/166 260/663/166 258/662/166 257/661/166
f 264/668/167 259/667/167 257/666/167 262/665/167
f 263/672/168 264/671/168 262/670/168 261/669/168
f 262/676/169 257/675/169 258/674/169 261/673/169
f 263/680/170 260/679/170 259/678/170 264/677/170
o cloth_east
v 0.5 1.0006250000000003 0.3125
v 0.5 1.0006250000000003 -0.3125
v 0.5 1 0.3125
v 0.5 1 -0.3125
v 0.3125 1.0006250000000003 -0.3125
v 0.3125 1.0006250000000003 0.3125
v 0.3125 1 -0.3125
v 0.3125 1 0.3125
vt 0.1875 0.1875
vt 0 0.1875
vt 0 0.8125
vt 0.1875 0.8125
vt 0.1875 0.8125
vt 0 0.8125
vt 0 0.1875
vt 0.1875 0.1875
vn 0 1 0
vn 0 -1 0
usemtl wool_colored_white
f 270/684/171 265/683/171 266/682/171 269/681/171
f 271/688/172 268/687/172 267/686/172 272/685/172
o cloth_north
v 0.3125 1.0006250000000003 -0.3125
v 0.3125 1.0006250000000003 -0.5
v 0.3125 1 -0.3125
v 0.3125 1 -0.5
v -0.3125 1.0006250000000003 -0.5
v -0.3125 1.0006250000000003 -0.3125
v -0.3125 1 -0.5
v -0.3125 1 -0.3125
vt 0.8125 0
vt 0.1875 0
vt 0.1875 0.1875
vt 0.8125 0.1875
vt 0.8125 0.1875
vt 0.1875 0.1875
vt 0.1875 0
vt 0.8125 0
vn 0 1 0
vn 0 -1 0
usemtl wool_colored_white
f 278/692/173 273/691/173 274/690/173 277/689/173
f 279/696/174 276/695/174 275/694/174 280/693/174
o cloth_northeast
v 0.5 1.0006250000000003 -0.3125
v 0.5 1.0006250000000003 -0.5
v 0.5 1 -0.3125
v 0.5 1 -0.5
v 0.3125 1.0006250000000003 -0.5
v 0.3125 1.0006250000000003 -0.3125
v 0.3125 1 -0.5
v 0.3125 1 -0.3125
vt 0.1875 0
vt 0 0
vt 0 0.1875
vt 0.1875 0.1875
vt 0.1875 0.1875
vt 0 0.1875
vt 0 0
vt 0.1875 0
vn 0 1 0
vn 0 -1 0
usemtl wool_colored_white
f 286/700/175 281/699/175 282/698/175 285/697/175
f 287/704/176 284/703/176 283/702/176 288/701/176
o cloth_northwest
v -0.3125 1.0006250000000003 -0.3125
v -0.3125 1.0006250000000003 -0.5
v -0.3125 1 -0.3125
v -0.3125 1 -0.5
v -0.5 1.0006250000000003 -0.5
v -0.5 1.0006250000000003 -0.3125
v -0.5 1 -0.5
v -0.5 1 -0.3125
vt 1 0
vt 0.8125 0
vt 0.8125 0.1875
vt 1 0.1875
vt 1 0.1875
vt 0.8125 0.1875
vt 0.8125 0
vt 1 0
vn 0 1 0
vn 0 -1 0
usemtl wool_colored_white
f 294/708/177 289/707/177 290/706/177 293/705/177
f 295/712/178 292/711/178 291/710/178 296/709/178
o cloth_southwest
v -0.3125 1.0006250000000003 0.5
v -0.3125 1.0006250000000003 0.3125
v -0.3125 1 0.5
v -0.3125 1 0.3125
v -0.5 1.0006250000000003 0.3125
v -0.5 1.0006250000000003 0.5
v -0.5 1 0.3125
v -0.5 1 0.5
vt 1 0.8125
vt 0.8125 0.8125
vt 0.8125 1
vt 1 1
vt 1 1
vt 0.8125 1
vt 0.8125 0.8125
vt 1 0.8125
vn 0 1 0
vn 0 -1 0
usemtl wool_colored_white
f 302/716/179 297/715/179 298/714/179 301/713/179
f 303/720/180 300/719/180 299/718/180 304/717/180
o cloth_southeast
v 0.5 1.0006250000000003 0.5
v 0.5 1.0006250000000003 0.3125
v 0.5 1 0.5
v 0.5 1 0.3125
v 0.3125 1.0006250000000003 0.3125
v 0.3125 1.0006250000000003 0.5
v 0.3125 1 0.3125
v 0.3125 1 0.5
vt 0.1875 0.8125
vt 0 0.8125
vt 0 1
vt 0.1875 1
vt 0.1875 1
vt 0 1
vt 0 0.8125
vt 0.1875 0.8125
vn 0 1 0
vn 0 -1 0
usemtl wool_colored_white
f 310/724/181 305/723/181 306/722/181 309/721/181
f 311/728/182 308/727/182 307/726/182 312/725/182
o cloth_side_northwest
v -0.3125 1 -0.500625
v -0.3125 1 -0.500625
v -0.3125 0.8125 -0.500625
v -0.3125 0.8125 -0.500625
v -0.5 1 -0.500625
v -0.5 1 -0.500625
v -0.5 0.8125 -0.500625
v -0.5 0.8125 -0.500625
vt 0.8125 1
vt 1 1
vt 1 0.8125
vt 0.8125 0.8125
vt 0.8125 1
vt 1 1
vt 1 0.8125
vt 0.8125 0.8125
vn 0 0 -1
vn 0 0 1
usemtl wool_colored_white
f 316/732/183 319/731/183 317/730/183 314/729/183
f 320/736/184 315/735/184 313/734/184 318/733/184
o cloth_side_northeast
v 0.5 1 -0.500625
v 0.5 1 -0.500625
v 0.5 0.8125 -0.500625
v 0.5 0.8125 -0.500625
v 0.3125 1 -0.500625
v 0.3125 1 -0.500625
v 0.3125 0.8125 -0.500625
v 0.3125 0.8125 -0.500625
vt 0 1
vt 0.1875 1
vt 0.1875 0.8125
vt 0 0.8125
vt 0 1
vt 0.1875 1
vt 0.1875 0.8125
vt 0 0.8125
vn 0 0 -1
vn 0 0 1
usemtl wool_colored_white
f 324/740/185 327/739/185 325/738/185 322/737/185
f 328/744/186 323/743/186 321/742/186 326/741/186
o cloth_side_eastnorth
v 0.5006250000000001 1 -0.3125
v 0.5006250000000001 1 -0.5
v 0.5006250000000001 0.8125 -0.3125
v 0.5006250000000001 0.8125 -0.5
v 0.5006250000000001 1 -0.5
v 0.5006250000000001 1 -0.3125
v 0.5006250000000001 0.8125 -0.5
v 0.5006250000000001 0.8125 -0.3125
vt 0.8125 1
vt 1 1
vt 1 0.8125
vt 0.8125 0.8125
vt 0.8125 1
vt 1 1
vt 1 0.8125
vt 0.8125 0.8125
vn 1 0 0
vn -1 0 0
usemtl wool_colored_white
f 331/748/187 332/747/187 330/746/187 329/745/187
f 335/752/188 336/751/188 334/750/188 333/749/188
o cloth_side_eastsouth
v 0.5006250000000001 1 0.5
v 0.5006250000000001 1 0.3125
v 0.5006250000000001 0.8125 0.5
v 0.5006250000000001 0.8125 0.3125
v 0.5006250000000001 1 0.3125
v 0.5006250000000001 1 0.5
v 0.5006250000000001 0.8125 0.3125
v 0.5006250000000001 0.8125 0.5
vt 0 1
vt 0.1875 1
vt 0.1875 0.8125
vt 0 0.8125
vt 0 1
vt 0.1875 1
vt 0.1875 0.8125
vt 0 0.8125
vn 1 0 0
vn -1 0 0
usemtl wool_colored_white
f 339/756/189 340/755/189 338/754/189 337/753/189
f 343/760/190 344/759/190 342/758/190 341/757/190
o cloth_side_southwest
v -0.3125 1 0.5006250000000001
v -0.3125 1 0.5006250000000001
v -0.3125 0.8125 0.5006250000000001
v -0.3125 0.8125 0.5006250000000001
v -0.5 1 0.5006250000000001
v -0.5 1 0.5006250000000001
v -0.5 0.8125 0.5006250000000001
v -0.5 0.8125 0.5006250000000001
vt 0 1
vt 0.1875 1
vt 0.1875 0.8125
vt 0 0.8125
vt 0 1
vt 0.1875 1
vt 0.1875 0.8125
vt 0 0.8125
vn 0 0 -1
vn 0 0 1
usemtl wool_colored_white
f 348/764/191 351/763/191 349/762/191 346/761/191
f 352/768/192 347/767/192 345/766/192 350/765/192
o cloth_side_southeast
v 0.5 1 0.5006250000000001
v 0.5 1 0.5006250000000001
v 0.5 0.8125 0.5006250000000001
v 0.5 0.8125 0.5006250000000001
v 0.3125 1 0.5006250000000001
v 0.3125 1 0.5006250000000001
v 0.3125 0.8125 0.5006250000000001
v 0.3125 0.8125 0.5006250000000001
vt 0.8125 1
vt 1 1
vt 1 0.8125
vt 0.8125 0.8125
vt 0.8125 1
vt 1 1
vt 1 0.8125
vt 0.8125 0.8125
vn 0 0 -1
vn 0 0 1
usemtl wool_colored_white
f 356/772/193 359/771/193 357/770/193 354/769/193
f 360/776/194 355/775/194 353/774/194 358/773/194
o cloth_side_westnorth
v -0.500625 1 -0.3125
v -0.500625 1 -0.5
v -0.500625 0.8125 -0.3125
v -0.500625 0.8125 -0.5
v -0.500625 1 -0.5
v -0.500625 1 -0.3125
v -0.500625 0.8125 -0.5
v -0.500625 0.8125 -0.3125
vt 0 1
vt 0.1875 1
vt 0.1875 0.8125
vt 0 0.8125
vt 0 1
vt 0.1875 1
vt 0.1875 0.8125
vt 0 0.8125
vn 1 0 0
vn -1 0 0
usemtl wool_colored_white
f 363/780/195 364/779/195 362/778/195 361/777/195
f 367/784/196 368/783/196 366/782/196 365/781/196
o cloth_side_westsouth
v -0.500625 1 0.5
v -0.500625 1 0.3125
v -0.500625 0.8125 0.5
v -0.500625 0.8125 0.3125
v -0.500625 1 0.3125
v -0.500625 1 0.5
v -0.500625 0.8125 0.3125
v -0.500625 0.8125 0.5
vt 0.8125 1
vt 1 1
vt 1 0.8125
vt 0.8125 0.8125
vt 0.8125 1
vt 1 1
vt 1 0.8125
vt 0.8125 0.8125
vn 1 0 0
vn -1 0 0
usemtl wool_colored_white
f 371/788/197 372/787/197 370/786/197 369/785/197
f 375/792/198 376/791/198 374/790/198 373/789/198
o leg_none
v 0.0625 0.875 0.0625
v 0.0625 0.875 -0.0625
v 0.0625 0.0625 0.0625
v 0.0625 0.0625 -0.0625
v -0.0625 0.875 -0.0625
v -0.0625 0.875 0.0625
v -0.0625 0.0625 -0.0625
v -0.0625 0.0625 0.0625
vt 0.4375 0.9375
vt 0.5625 0.9375
vt 0.5625 0.125
vt 0.4375 0.125
vt 0.4375 0.9375
vt 0.5625 0.9375
vt 0.5625 0.125
vt 0.4375 0.125
vt 0.4375 0.9375
vt 0.5625 0.9375
vt 0.5625 0.125
vt 0.4375 0.125
vt 0.4375 0.9375
vt 0.5625 0.9375
vt 0.5625 0.125
vt 0.4375 0.125
vt 0.4375 0.5625
vt 0.5625 0.5625
vt 0.5625 0.4375
vt 0.4375 0.4375
vt 0.4375 0.5625
vt 0.5625 0.5625
vt 0.5625 0.4375
vt 0.4375 0.4375
vn 0 0 -1
vn 1 0 0
vn 0 0 1
vn -1 0 0
vn 0 1 0
vn 0 -1 0
usemtl planks_oak
f 380/796/199 383/795/199 381/794/199 378/793/199
f 379/800/200 380/799/200 378/798/200 377/797/200
f 384/804/201 379/803/201 377/802/201 382/801/201
f 383/808/202 384/807/202 382/806/202 381/805/202
f 382/812/203 377/811/203 378/810/203 381/809/203
f 383/816/204 380/815/204 379/814/204 384/813/204
o leg_none
v 0.0625 0.1875 -0.0625
v 0.0625 0.020075998340273238 -0.46669729547368793
v 0.0625 0.12975752921804456 -0.03858228547718189
v 0.0625 -0.0376664724416822 -0.44277958095086983
v -0.0625 0.020075998340273238 -0.46669729547368793
v -0.0625 0.1875 -0.0625
v -0.0625 -0.0376664724416822 -0.44277958095086983
v -0.0625 0.12975752921804456 -0.03858228547718189
vt 0.4375 0.0625
vt 0.5625 0.0625
vt 0.5625 0
vt 0.4375 0
vt 0.5625 0.125
vt 1 0.125
vt 1 0.0625
vt 0.5625 0.0625
vt 0.4375 0.1875
vt 0.5625 0.1875
vt 0.5625 0.125
vt 0.4375 0.125
vt 0 0.125
vt 0.4375 0.125
vt 0.4375 0.0625
vt 0 0.0625
vt 0.4375 1
vt 0.5625 1
vt 0.5625 0.5625
vt 0.4375 0.5625
vt 0.4375 0.4375
vt 0.5625 0.4375
vt 0.5625 0
vt 0.4375 0
vn 0 -0.3826834323650897 -0.9238795325112867
vn 1 0 0
vn 0 0.3826834323650897 0.9238795325112867
vn -1 0 0
vn 0 0.9238795325112867 -0.3826834323650897
vn 0 -0.9238795325112867 0.3826834323650897
usemtl planks_oak
f 388/820/205 391/819/205 389/818/205 386/817/205
f 387/824/206 388/823/206 386/822/206 385/821/206
f 392/828/207 387/827/207 385/826/207 390/825/207
f 391/832/208 392/831/208 390/830/208 389/829/208
f 390/836/209 385/835/209 386/834/209 389/833/209
f 391/840/210 388/839/210 387/838/210 392/837/210
o leg_none
v 0.46669729547368793 0.020075998340273238 0.0625
v 0.46669729547368793 0.020075998340273238 -0.0625
v 0.44277958095086983 -0.0376664724416822 0.0625
v 0.44277958095086983 -0.0376664724416822 -0.0625
v 0.0625 0.1875 -0.0625
v 0.0625 0.1875 0.0625
v 0.03858228547718189 0.12975752921804456 -0.0625
v 0.03858228547718189 0.12975752921804456 0.0625
vt 0 0.125
vt 0.4375 0.125
vt 0.4375 0.0625
vt 0 0.0625
vt 0.4375 0.0625
vt 0.5625 0.0625
vt 0.5625 0
vt 0.4375 0
vt 0.5625 0.125
vt 1 0.125
vt 1 0.0625
vt 0.5625 0.0625
vt 0.4375 0.1875
vt 0.5625 0.1875
vt 0.5625 0.125
vt 0.4375 0.125
vt 0.5625 0.5625
vt 1 0.5625
vt 1 0.4375
vt 0.5625 0.4375
vt 0.5625 0.5625
vt 1 0.5625
vt 1 0.4375
vt 0.5625 0.4375
vn 0 0 -1
vn 0.9238795325112867 -0.3826834323650897 0
vn 0 0 1
vn -0.9238795325112867 0.3826834323650897 0
vn 0.3826834323650897 0.9238795325112867 0
vn -0.3826834323650897 -0.9238795325112867 0
usemtl planks_oak
f 396/844/211 399/843/211 397/842/211 394/841/211
f 395/848/212 396/847/212 394/846/212 393/845/212
f 400/852/213 395/851/213 393/850/213 398/849/213
f 399/856/214 400/855/214 398/854/214 397/853/214
f 398/860/215 393/859/215 394/858/215 397/857/215
f 399/864/216 396/863/216 395/862/216 400/861/216
o leg_none
v 0.0625 0.020075998340273238 0.46669729547368793
v 0.0625 0.1875 0.0625
v 0.0625 -0.0376664724416822 0.44277958095086983
v 0.0625 0.12975752921804456 0.03858228547718189
v -0.0625 0.1875 0.0625
v -0.0625 0.020075998340273238 0.46669729547368793
v -0.0625 0.12975752921804456 0.03858228547718189
v -0.0625 -0.0376664724416822 0.44277958095086983
vt 0.4375 0.1875
vt 0.5625 0.1875
vt 0.5625 0.125
vt 0.4375 0.125
vt 0 0.125
vt 0.4375 0.125
vt 0.4375 0.0625
vt 0 0.0625
vt 0.4375 0.0625
vt 0.5625 0.0625
vt 0.5625 0
vt 0.4375 0
vt 0.5625 0.125
vt 1 0.125
vt 1 0.0625
vt 0.5625 0.0625
vt 0.4375 0.4375
vt 0.5625 0.4375
vt 0.5625 0
vt 0.4375 0
vt 0.4375 1
vt 0.5625 1
vt 0.5625 0.5625
vt 0.4375 0.5625
vn 0 0.3826834323650897 -0.9238795325112867
vn 1 0 0
vn 0 -0.3826834323650897 0.9238795325112867
vn -1 0 0
vn 0 0.9238795325112867 0.3826834323650897
vn 0 -0.9238795325112867 -0.3826834323650897
usemtl planks_oak
f 404/868/217 407/867/217 405/866/217 402/865/217
f 403/872/218 404/871/218 402/870/218 401/869/218
f 408/876/219 403/875/219 401/874/219 406/873/219
f 407/880/220 408/879/220 406/878/220 405/877/220
f 406/884/221 401/883/221 402/882/221 405/881/221
f 407/888/222 404/887/222 403/886/222 408/885/222
o leg_none
v -0.0625 0.1875 0.0625
v -0.0625 0.1875 -0.0625
v -0.03858228547718189 0.12975752921804456 0.0625
v -0.03858228547718189 0.12975752921804456 -0.0625
v -0.46669729547368793 0.020075998340273238 -0.0625
v -0.46669729547368793 0.020075998340273238 0.0625
v -0.44277958095086983 -0.0376664724416822 -0.0625
v -0.44277958095086983 -0.0376664724416822 0.0625
vt 0.5625 0.125
vt 1 0.125
vt 1 0.0625
vt 0.5625 0.0625
vt 0.4375 0.1875
vt 0.5625 0.1875
vt 0.5625 0.125
vt 0.4375 0.125
vt 0 0.125
vt 0.4375 0.125
vt 0.4375 0.0625
vt 0 0.0625
vt 0.4375 0.0625
vt 0.5625 0.0625
vt 0.5625 0
vt 0.4375 0
vt 0 0.5625
vt 0.4375 0.5625
vt 0.4375 0.4375
vt 0 0.4375
vt 0 0.5625
vt 0.4375 0.5625
vt 0.4375 0.4375
vt 0 0.4375
vn 0 0 -1
vn 0.9238795325112867 0.3826834323650897 0
vn 0 0 1
vn -0.9238795325112867 -0.3826834323650897 0
vn -0.3826834323650897 0.9238795325112867 0
vn 0.3826834323650897 -0.9238795325112867 0
usemtl planks_oak
f 412/892/223 415/891/223 413/890/223 410/889/223
f 411/896/224 412/895/224 410/894/224 409/893/224
f 416/900/225 411/899/225 409/898/225 414/897/225
f 415/904/226 416/903/226 414/902/226 413/901/226
f 414/908/227 409/907/227 410/906/227 413/905/227
f 415/912/228 412/911/228 411/910/228 416/909/228
