# Made in Blockbench 4.12.3
mtllib typesettingtable.mtl

o base
v -0.5 -0.0037499999999999756 0.5
v -0.4999999999999998 -0.0037499999999999756 -0.5
v 0.5 -0.0037499999999999756 0.5000000000000002
v 0.5000000000000002 -0.0037499999999999756 -0.4999999999999998
v -0.5 0.8833467741935483 0.5
v -0.4999999999999998 0.8833467741935483 -0.5
v 0.5000000000000002 0.8833467741935483 -0.4999999999999998
v 0.5 0.8833467741935483 0.5000000000000002
v -0.475 0.8833467741935483 0.475
v 0.475 0.8833467741935483 0.4750000000000002
v -0.47499999999999976 0.8833467741935483 -0.475
v 0.4750000000000002 0.8833467741935483 -0.47499999999999976
v 0.5 0.9337500000000001 0.5000000000000002
v 0.5000000000000002 0.9337500000000001 -0.4999999999999998
v -0.4999999999999998 0.9337500000000001 -0.5
v -0.5 0.9337500000000001 0.5
v 0.4750000000000002 0.9337500000000001 -0.47499999999999976
v 0.475 0.9337500000000001 0.4750000000000002
v -0.475 0.9337500000000001 0.475
v -0.47499999999999976 0.9337500000000001 -0.475
v 0.014173000000000213 0.9337500000000001 -0.47499999999999987
v 0.014173000000000102 0.9337500000000001 -0.07830799999999993
v 0.014173000000000213 0.8833467741935483 -0.47499999999999987
v 0.014173000000000102 0.8833467741935483 -0.07830799999999993
v -0.009826999999999864 0.9337500000000001 -0.07830799999999993
v -0.009826999999999753 0.9337500000000001 -0.47499999999999987
v -0.009826999999999864 0.8833467741935483 -0.07830799999999993
v -0.009826999999999753 0.8833467741935483 -0.47499999999999987
v -0.1981469999999999 0.9337500000000001 0.09430800000000006
v -0.19814700000000002 0.9337500000000001 0.4750000000000001
v -0.1981469999999999 0.8833467741935483 0.09430800000000006
v -0.19814700000000002 0.8833467741935483 0.4750000000000001
v -0.22214699999999998 0.9337500000000001 0.4750000000000001
v -0.22214699999999987 0.9337500000000001 0.09430800000000006
v -0.22214699999999998 0.8833467741935483 0.4750000000000001
v -0.22214699999999987 0.8833467741935483 0.09430800000000006
v -0.1983859999999999 0.9337500000000001 0.04010800000000003
v -0.4752129999999999 0.9337500000000001 0.04010799999999998
v -0.1983859999999999 0.8833467741935483 0.04010800000000003
v -0.4752129999999999 0.8833467741935483 0.04010799999999998
v -0.4752129999999999 0.9337500000000001 0.024507999999999974
v -0.1983859999999999 0.9337500000000001 0.02450800000000003
v -0.4752129999999999 0.8833467741935483 0.024507999999999974
v -0.1983859999999999 0.8833467741935483 0.02450800000000003
v -0.1983859999999999 0.9337500000000001 0.04010800000000003
v -0.4752129999999999 0.9337500000000001 0.04010799999999998
v -0.1983859999999999 0.8833467741935483 0.04010800000000003
v -0.4752129999999999 0.8833467741935483 0.04010799999999998
v -0.4752129999999999 0.9337500000000001 0.024507999999999974
v -0.1983859999999999 0.9337500000000001 0.02450800000000003
v -0.4752129999999999 0.8833467741935483 0.024507999999999974
v -0.1983859999999999 0.8833467741935483 0.02450800000000003
v 0.4750000000000001 0.9337500000000001 -0.052191999999999794
v -0.47499999999999987 0.9337500000000001 -0.052192000000000016
v 0.4750000000000001 0.8833467741935483 -0.052191999999999794
v -0.47499999999999987 0.8833467741935483 -0.052192000000000016
v -0.47499999999999987 0.9337500000000001 -0.07819200000000004
v 0.4750000000000001 0.9337500000000001 -0.07819199999999982
v -0.47499999999999987 0.8833467741935483 -0.07819200000000004
v 0.4750000000000001 0.8833467741935483 -0.07819199999999982
v 0.4750000000000001 0.9337500000000001 -0.052191999999999794
v -0.47499999999999987 0.9337500000000001 -0.052192000000000016
v 0.4750000000000001 0.8833467741935483 -0.052191999999999794
v -0.47499999999999987 0.8833467741935483 -0.052192000000000016
v -0.47499999999999987 0.9337500000000001 -0.07819200000000004
v 0.4750000000000001 0.9337500000000001 -0.07819199999999982
v -0.47499999999999987 0.8833467741935483 -0.07819200000000004
v 0.4750000000000001 0.8833467741935483 -0.07819199999999982
v -0.0523269999999999 0.9337500000000001 -0.052197999999999856
v -0.0523269999999999 0.9337500000000001 0.06835400000000014
v -0.0523269999999999 0.8833467741935483 -0.052197999999999856
v -0.0523269999999999 0.8833467741935483 0.06835400000000014
v -0.07632699999999987 0.9337500000000001 0.06835400000000014
v -0.07632699999999987 0.9337500000000001 -0.052197999999999856
v -0.07632699999999987 0.8833467741935483 0.06835400000000014
v -0.07632699999999987 0.8833467741935483 -0.052197999999999856
v 0.22217300000000006 0.9337500000000001 0.09330800000000017
v 0.22217299999999995 0.9337500000000001 0.47500000000000014
v 0.22217300000000006 0.8833467741935483 0.09330800000000017
v 0.22217299999999995 0.8833467741935483 0.47500000000000014
v 0.19817300000000004 0.9337500000000001 0.47500000000000014
v 0.19817300000000015 0.9337500000000001 0.09330800000000017
v 0.19817300000000004 0.8833467741935483 0.47500000000000014
v 0.19817300000000015 0.8833467741935483 0.09330800000000017
v -0.1743269999999999 0.9337500000000001 -0.052197999999999856
v -0.1743269999999999 0.9337500000000001 0.06835400000000008
v -0.1743269999999999 0.8833467741935483 -0.052197999999999856
v -0.1743269999999999 0.8833467741935483 0.06835400000000008
v -0.19832699999999986 0.9337500000000001 0.06835400000000008
v -0.19832699999999986 0.9337500000000001 -0.052197999999999856
v -0.19832699999999986 0.8833467741935483 0.06835400000000008
v -0.19832699999999986 0.8833467741935483 -0.052197999999999856
v 0.19817300000000015 0.9337500000000001 -0.052197999999999856
v 0.19817300000000015 0.9337500000000001 0.06835400000000019
v 0.19817300000000015 0.8833467741935483 -0.052197999999999856
v 0.19817300000000015 0.8833467741935483 0.06835400000000019
v 0.17417300000000013 0.9337500000000001 0.06835400000000019
v 0.17417300000000013 0.9337500000000001 -0.052197999999999856
v 0.17417300000000013 0.8833467741935483 0.06835400000000019
v 0.17417300000000013 0.8833467741935483 -0.052197999999999856
v 0.07617300000000016 0.9337500000000001 -0.052197999999999856
v 0.07617300000000016 0.9337500000000001 0.06835400000000014
v 0.07617300000000016 0.8833467741935483 -0.052197999999999856
v 0.07617300000000016 0.8833467741935483 0.06835400000000014
v 0.052173000000000136 0.9337500000000001 0.06835400000000014
v 0.052173000000000136 0.9337500000000001 -0.052197999999999856
v 0.052173000000000136 0.8833467741935483 0.06835400000000014
v 0.052173000000000136 0.8833467741935483 -0.052197999999999856
v 0.4750000000000001 0.9337500000000001 0.09430800000000022
v -0.4749999999999999 0.9337500000000001 0.094308
v 0.4750000000000001 0.8833467741935483 0.09430800000000022
v -0.4749999999999999 0.8833467741935483 0.094308
v -0.4749999999999999 0.9337500000000001 0.06830799999999998
v 0.4750000000000001 0.9337500000000001 0.0683080000000002
v -0.4749999999999999 0.8833467741935483 0.06830799999999998
v 0.4750000000000001 0.8833467741935483 0.0683080000000002
v 0.4750000000000001 0.9337500000000001 0.09430800000000022
v -0.4749999999999999 0.9337500000000001 0.094308
v 0.4750000000000001 0.8833467741935483 0.09430800000000022
v -0.4749999999999999 0.8833467741935483 0.094308
v -0.4749999999999999 0.9337500000000001 0.06830799999999998
v 0.4750000000000001 0.9337500000000001 0.0683080000000002
v -0.4749999999999999 0.8833467741935483 0.06830799999999998
v 0.4750000000000001 0.8833467741935483 0.0683080000000002
v -0.40138599999999997 0.9337500000000001 0.317531
v -0.4013859999999999 0.9337500000000001 0.094304
v -0.40138599999999997 0.8833467741935483 0.317531
v -0.4013859999999999 0.8833467741935483 0.094304
v -0.3857859999999999 0.9337500000000001 0.094304
v -0.38578599999999996 0.9337500000000001 0.317531
v -0.3857859999999999 0.8833467741935483 0.094304
v -0.38578599999999996 0.8833467741935483 0.317531
v -0.40138599999999997 0.9337500000000001 0.317531
v -0.4013859999999999 0.9337500000000001 0.094304
v -0.40138599999999997 0.8833467741935483 0.317531
v -0.4013859999999999 0.8833467741935483 0.094304
v -0.3857859999999999 0.9337500000000001 0.094304
v -0.38578599999999996 0.9337500000000001 0.317531
v -0.3857859999999999 0.8833467741935483 0.094304
v -0.38578599999999996 0.8833467741935483 0.317531
v -0.1983859999999999 0.9337500000000001 -0.006891999999999898
v -0.4752129999999999 0.9337500000000001 -0.006892000000000009
v -0.1983859999999999 0.8833467741935483 -0.006891999999999898
v -0.4752129999999999 0.8833467741935483 -0.006892000000000009
v -0.4752129999999999 0.9337500000000001 -0.022491999999999956
v -0.1983859999999999 0.9337500000000001 -0.022491999999999845
v -0.4752129999999999 0.8833467741935483 -0.022491999999999956
v -0.1983859999999999 0.8833467741935483 -0.022491999999999845
v -0.1983859999999999 0.9337500000000001 -0.006891999999999898
v -0.4752129999999999 0.9337500000000001 -0.006892000000000009
v -0.1983859999999999 0.8833467741935483 -0.006891999999999898
v -0.4752129999999999 0.8833467741935483 -0.006892000000000009
v -0.4752129999999999 0.9337500000000001 -0.022491999999999956
v -0.1983859999999999 0.9337500000000001 -0.022491999999999845
v -0.4752129999999999 0.8833467741935483 -0.022491999999999956
v -0.1983859999999999 0.8833467741935483 -0.022491999999999845
v 0.4750000000000001 0.9337500000000001 -0.006891999999999787
v 0.19817300000000015 0.9337500000000001 -0.006891999999999898
v 0.4750000000000001 0.8833467741935483 -0.006891999999999787
v 0.19817300000000015 0.8833467741935483 -0.006891999999999898
v 0.19817300000000015 0.9337500000000001 -0.022491999999999845
v 0.4750000000000001 0.9337500000000001 -0.022491999999999734
v 0.19817300000000015 0.8833467741935483 -0.022491999999999845
v 0.4750000000000001 0.8833467741935483 -0.022491999999999734
v 0.4750000000000001 0.9337500000000001 -0.006891999999999787
v 0.19817300000000015 0.9337500000000001 -0.006891999999999898
v 0.4750000000000001 0.8833467741935483 -0.006891999999999787
v 0.19817300000000015 0.8833467741935483 -0.006891999999999898
v 0.19817300000000015 0.9337500000000001 -0.022491999999999845
v 0.4750000000000001 0.9337500000000001 -0.022491999999999734
v 0.19817300000000015 0.8833467741935483 -0.022491999999999845
v 0.4750000000000001 0.8833467741935483 -0.022491999999999734
v 0.4750000000000001 0.9337500000000001 0.0401080000000002
v 0.19817300000000015 0.9337500000000001 0.040108000000000144
v 0.4750000000000001 0.8833467741935483 0.0401080000000002
v 0.19817300000000015 0.8833467741935483 0.040108000000000144
v 0.19817300000000015 0.9337500000000001 0.02450800000000014
v 0.4750000000000001 0.9337500000000001 0.024508000000000196
v 0.19817300000000015 0.8833467741935483 0.02450800000000014
v 0.4750000000000001 0.8833467741935483 0.024508000000000196
v 0.4750000000000001 0.9337500000000001 0.0401080000000002
v 0.19817300000000015 0.9337500000000001 0.040108000000000144
v 0.4750000000000001 0.8833467741935483 0.0401080000000002
v 0.19817300000000015 0.8833467741935483 0.040108000000000144
v 0.19817300000000015 0.9337500000000001 0.02450800000000014
v 0.4750000000000001 0.9337500000000001 0.024508000000000196
v 0.19817300000000015 0.8833467741935483 0.02450800000000014
v 0.4750000000000001 0.8833467741935483 0.024508000000000196
v -0.222173 0.9337500000000001 0.41210800000000003
v -0.475 0.9337500000000001 0.41210800000000003
v -0.222173 0.8833467741935483 0.41210800000000003
v -0.475 0.8833467741935483 0.41210800000000003
v -0.475 0.9337500000000001 0.39650799999999997
v -0.222173 0.9337500000000001 0.3965080000000001
v -0.475 0.8833467741935483 0.39650799999999997
v -0.222173 0.8833467741935483 0.3965080000000001
v -0.222173 0.9337500000000001 0.41210800000000003
v -0.475 0.9337500000000001 0.41210800000000003
v -0.222173 0.8833467741935483 0.41210800000000003
v -0.475 0.8833467741935483 0.41210800000000003
v -0.475 0.9337500000000001 0.39650799999999997
v -0.222173 0.9337500000000001 0.3965080000000001
v -0.475 0.8833467741935483 0.39650799999999997
v -0.222173 0.8833467741935483 0.3965080000000001
v -0.22217299999999995 0.9337500000000001 0.33310800000000007
v -0.475 0.9337500000000001 0.33310799999999996
v -0.22217299999999995 0.8833467741935483 0.33310800000000007
v -0.475 0.8833467741935483 0.33310799999999996
v -0.475 0.9337500000000001 0.317508
v -0.22217299999999995 0.9337500000000001 0.31750800000000007
v -0.475 0.8833467741935483 0.317508
v -0.22217299999999995 0.8833467741935483 0.31750800000000007
v -0.22217299999999995 0.9337500000000001 0.33310800000000007
v -0.475 0.9337500000000001 0.33310799999999996
v -0.22217299999999995 0.8833467741935483 0.33310800000000007
v -0.475 0.8833467741935483 0.33310799999999996
v -0.475 0.9337500000000001 0.317508
v -0.22217299999999995 0.9337500000000001 0.31750800000000007
v -0.475 0.8833467741935483 0.317508
v -0.22217299999999995 0.8833467741935483 0.31750800000000007
v -0.31138599999999994 0.9337500000000001 0.31753100000000006
v -0.31138599999999994 0.9337500000000001 0.09430400000000005
v -0.31138599999999994 0.8833467741935483 0.31753100000000006
v -0.31138599999999994 0.8833467741935483 0.09430400000000005
v -0.2957859999999999 0.9337500000000001 0.09430400000000005
v -0.295786 0.9337500000000001 0.31753100000000006
v -0.2957859999999999 0.8833467741935483 0.09430400000000005
v -0.295786 0.8833467741935483 0.31753100000000006
v -0.31138599999999994 0.9337500000000001 0.31753100000000006
v -0.31138599999999994 0.9337500000000001 0.09430400000000005
v -0.31138599999999994 0.8833467741935483 0.31753100000000006
v -0.31138599999999994 0.8833467741935483 0.09430400000000005
v -0.2957859999999999 0.9337500000000001 0.09430400000000005
v -0.295786 0.9337500000000001 0.31753100000000006
v -0.2957859999999999 0.8833467741935483 0.09430400000000005
v -0.295786 0.8833467741935483 0.31753100000000006
v 0.295787 0.9337500000000001 0.3175310000000002
v 0.29578700000000013 0.9337500000000001 0.09430400000000017
v 0.295787 0.8833467741935483 0.3175310000000002
v 0.29578700000000013 0.8833467741935483 0.09430400000000017
v 0.3113870000000001 0.9337500000000001 0.09430400000000017
v 0.31138699999999997 0.9337500000000001 0.3175310000000002
v 0.3113870000000001 0.8833467741935483 0.09430400000000017
v 0.31138699999999997 0.8833467741935483 0.3175310000000002
v 0.295787 0.9337500000000001 0.3175310000000002
v 0.29578700000000013 0.9337500000000001 0.09430400000000017
v 0.295787 0.8833467741935483 0.3175310000000002
v 0.29578700000000013 0.8833467741935483 0.09430400000000017
v 0.3113870000000001 0.9337500000000001 0.09430400000000017
v 0.31138699999999997 0.9337500000000001 0.3175310000000002
v 0.3113870000000001 0.8833467741935483 0.09430400000000017
v 0.31138699999999997 0.8833467741935483 0.3175310000000002
v 0.475 0.9337500000000001 0.41210800000000025
v 0.22217299999999995 0.9337500000000001 0.41210800000000014
v 0.475 0.8833467741935483 0.41210800000000025
v 0.22217299999999995 0.8833467741935483 0.41210800000000014
v 0.22217299999999995 0.9337500000000001 0.3965080000000002
v 0.475 0.9337500000000001 0.3965080000000002
v 0.22217299999999995 0.8833467741935483 0.3965080000000002
v 0.475 0.8833467741935483 0.3965080000000002
v 0.475 0.9337500000000001 0.41210800000000025
v 0.22217299999999995 0.9337500000000001 0.41210800000000014
v 0.475 0.8833467741935483 0.41210800000000025
v 0.22217299999999995 0.8833467741935483 0.41210800000000014
v 0.22217299999999995 0.9337500000000001 0.3965080000000002
v 0.475 0.9337500000000001 0.3965080000000002
v 0.22217299999999995 0.8833467741935483 0.3965080000000002
v 0.475 0.8833467741935483 0.3965080000000002
v 0.475 0.9337500000000001 0.3331080000000002
v 0.22217299999999995 0.9337500000000001 0.3331080000000002
v 0.475 0.8833467741935483 0.3331080000000002
v 0.22217299999999995 0.8833467741935483 0.3331080000000002
v 0.22217299999999995 0.9337500000000001 0.3175080000000002
v 0.475 0.9337500000000001 0.31750800000000023
v 0.22217299999999995 0.8833467741935483 0.3175080000000002
v 0.475 0.8833467741935483 0.31750800000000023
v 0.475 0.9337500000000001 0.3331080000000002
v 0.22217299999999995 0.9337500000000001 0.3331080000000002
v 0.475 0.8833467741935483 0.3331080000000002
v 0.22217299999999995 0.8833467741935483 0.3331080000000002
v 0.22217299999999995 0.9337500000000001 0.3175080000000002
v 0.475 0.9337500000000001 0.31750800000000023
v 0.22217299999999995 0.8833467741935483 0.3175080000000002
v 0.475 0.8833467741935483 0.31750800000000023
v 0.385787 0.9337500000000001 0.31753100000000023
v 0.3857870000000001 0.9337500000000001 0.09430400000000022
v 0.385787 0.8833467741935483 0.31753100000000023
v 0.3857870000000001 0.8833467741935483 0.09430400000000022
v 0.40138700000000016 0.9337500000000001 0.09430400000000022
v 0.40138700000000005 0.9337500000000001 0.31753100000000023
v 0.40138600000000013 0.8833467741935483 0.09430400000000022
v 0.401386 0.8833467741935483 0.31753100000000023
v 0.385787 0.9337500000000001 0.31753100000000023
v 0.3857870000000001 0.9337500000000001 0.09430400000000022
v 0.385787 0.8833467741935483 0.31753100000000023
v 0.3857870000000001 0.8833467741935483 0.09430400000000022
v 0.40138700000000016 0.9337500000000001 0.09430400000000022
v 0.40138700000000005 0.9337500000000001 0.31753100000000023
v 0.40138600000000013 0.8833467741935483 0.09430400000000022
v 0.401386 0.8833467741935483 0.31753100000000023
vt 0.377607 0.627607
vt 0.748393 0.627607
vt 0.748393 0.998393
vt 0.377607 0.998393
vt 0.748649 0.624962
vt 0.375351 0.624962
vt 0.375351 0.299038
vt 0.748649 0.299038
vt 0.373649 0.624112
vt 0.000351 0.624112
vt 0.000351 0.298188
vt 0.373649 0.298188
vt 0.748649 0.624962
vt 0.375351 0.624962
vt 0.375351 0.299038
vt 0.748649 0.299038
vt 0.748649 0.624962
vt 0.375351 0.624962
vt 0.375351 0.299038
vt 0.748649 0.299038
vt 0.374794 0.999355
vt 0.001206 0.999355
vt 0.001206 0.624245
vt 0.374794 0.624245
vt 0.318552 0.15701500000000002
vt 0.681448 0.15701500000000002
vt 0.681448 0.20198499999999997
vt 0.318552 0.20198499999999997
vt 0.318552 0.15701500000000002
vt 0.681448 0.15701500000000002
vt 0.681448 0.20198499999999997
vt 0.318552 0.20198499999999997
vt 0.318552 0.15701500000000002
vt 0.681448 0.15701500000000002
vt 0.681448 0.20198499999999997
vt 0.318552 0.20198499999999997
vt 0.318552 0.15701500000000002
vt 0.681448 0.15701500000000002
vt 0.681448 0.20198499999999997
vt 0.318552 0.20198499999999997
vt 0.630353 0.15686699999999998
vt 0.995647 0.15686699999999998
vt 0.995647 0.202133
vt 0.630353 0.202133
vt 0.630353 0.15686699999999998
vt 0.995647 0.15686699999999998
vt 0.995647 0.202133
vt 0.630353 0.202133
vt 0.630353 0.15686699999999998
vt 0.995647 0.15686699999999998
vt 0.995647 0.202133
vt 0.630353 0.202133
vt 0.630353 0.15686699999999998
vt 0.995647 0.15686699999999998
vt 0.995647 0.202133
vt 0.630353 0.202133
vt 0.877071 0.22177099999999994
vt 0.890055 0.24922900000000003
vt 0.370704 0.24922900000000003
vt 0.383688 0.22177099999999994
vt 0.890003 0.24922900000000003
vt 0.370704 0.24922900000000003
vt 0.383636 0.22177099999999994
vt 0.877019 0.22177099999999994
vt 0.370704 0.22177099999999994
vt 0.890055 0.22177099999999994
vt 0.877071 0.24922900000000003
vt 0.383688 0.24922900000000003
vt 0.370704 0.22177099999999994
vt 0.890003 0.22177099999999994
vt 0.877019 0.24922900000000003
vt 0.383636 0.24922900000000003
vt 0.579341 0.204249
vt 0.396659 0.204249
vt 0.396659 0.249749
vt 0.579341 0.249749
vt 0.579341 0.204249
vt 0.396659 0.204249
vt 0.396659 0.249749
vt 0.579341 0.249749
vt 0.396659 0.246386
vt 0.396659 0.22374800000000006
vt 0.579341 0.22374800000000006
vt 0.579341 0.246386
vt 0.579341 0.204249
vt 0.396659 0.204249
vt 0.396659 0.249749
vt 0.579341 0.249749
vt 0.579341 0.204249
vt 0.396659 0.204249
vt 0.396659 0.249749
vt 0.579341 0.249749
vt 0.396659 0.246386
vt 0.396659 0.22374800000000006
vt 0.579341 0.22374800000000006
vt 0.579341 0.246386
vt 0.363803 0.20579800000000004
vt 0.004017 0.20579800000000004
vt 0.004017 0.250382
vt 0.363803 0.250382
vt 0.363803 0.20579800000000004
vt 0.004017 0.20579800000000004
vt 0.004017 0.250382
vt 0.363803 0.250382
vt 0.363983 0.22654399999999997
vt 0.363983 0.24727600000000005
vt 0.004197 0.24727600000000005
vt 0.004197 0.22654399999999997
vt 0.363803 0.20579800000000004
vt 0.004017 0.20579800000000004
vt 0.004017 0.250382
vt 0.363803 0.250382
vt 0.363803 0.20579800000000004
vt 0.004017 0.20579800000000004
vt 0.004017 0.250382
vt 0.363803 0.250382
vt 0.363983 0.22654399999999997
vt 0.363983 0.24727600000000005
vt 0.004197 0.24727600000000005
vt 0.004197 0.22654399999999997
vt 0.363803 0.20579800000000004
vt 0.004017 0.20579800000000004
vt 0.004017 0.250382
vt 0.363803 0.250382
vt 0.363803 0.20579800000000004
vt 0.004017 0.20579800000000004
vt 0.004017 0.250382
vt 0.363803 0.250382
vt 0.363983 0.22654399999999997
vt 0.363983 0.24727600000000005
vt 0.004197 0.24727600000000005
vt 0.004197 0.22654399999999997
vt 0.363803 0.20579800000000004
vt 0.004017 0.20579800000000004
vt 0.004017 0.250382
vt 0.363803 0.250382
vt 0.363803 0.20579800000000004
vt 0.004017 0.20579800000000004
vt 0.004017 0.250382
vt 0.363803 0.250382
vt 0.363983 0.22654399999999997
vt 0.363983 0.24727600000000005
vt 0.004197 0.24727600000000005
vt 0.004197 0.22654399999999997
vt 0.579341 0.204249
vt 0.396659 0.204249
vt 0.396659 0.249749
vt 0.579341 0.249749
vt 0.579341 0.204249
vt 0.396659 0.204249
vt 0.396659 0.249749
vt 0.579341 0.249749
vt 0.396659 0.246386
vt 0.396659 0.22374800000000006
vt 0.579341 0.22374800000000006
vt 0.579341 0.246386
vt 0.579341 0.204249
vt 0.396659 0.204249
vt 0.396659 0.249749
vt 0.579341 0.249749
vt 0.579341 0.204249
vt 0.396659 0.204249
vt 0.396659 0.249749
vt 0.579341 0.249749
vt 0.396659 0.246386
vt 0.396659 0.22374800000000006
vt 0.579341 0.22374800000000006
vt 0.579341 0.246386
vt 0.579341 0.204249
vt 0.396659 0.204249
vt 0.396659 0.249749
vt 0.579341 0.249749
vt 0.579341 0.204249
vt 0.396659 0.204249
vt 0.396659 0.249749
vt 0.579341 0.249749
vt 0.396659 0.246386
vt 0.396659 0.22374800000000006
vt 0.579341 0.22374800000000006
vt 0.579341 0.246386
vt 0.579341 0.204249
vt 0.396659 0.204249
vt 0.396659 0.249749
vt 0.579341 0.249749
vt 0.579341 0.204249
vt 0.396659 0.204249
vt 0.396659 0.249749
vt 0.579341 0.249749
vt 0.396659 0.246386
vt 0.396659 0.22374800000000006
vt 0.579341 0.22374800000000006
vt 0.579341 0.246386
vt 0.579341 0.204249
vt 0.396659 0.204249
vt 0.396659 0.249749
vt 0.579341 0.249749
vt 0.579341 0.204249
vt 0.396659 0.204249
vt 0.396659 0.249749
vt 0.579341 0.249749
vt 0.396659 0.246386
vt 0.396659 0.22374800000000006
vt 0.579341 0.22374800000000006
vt 0.579341 0.246386
vt 0.363803 0.20579800000000004
vt 0.004017 0.20579800000000004
vt 0.004017 0.250382
vt 0.363803 0.250382
vt 0.363803 0.20579800000000004
vt 0.004017 0.20579800000000004
vt 0.004017 0.250382
vt 0.363803 0.250382
vt 0.363983 0.22654399999999997
vt 0.363983 0.24727600000000005
vt 0.004197 0.24727600000000005
vt 0.004197 0.22654399999999997
vt 0.363803 0.20579800000000004
vt 0.004017 0.20579800000000004
vt 0.004017 0.250382
vt 0.363803 0.250382
vt 0.363803 0.20579800000000004
vt 0.004017 0.20579800000000004
vt 0.004017 0.250382
vt 0.363803 0.250382
vt 0.363983 0.22654399999999997
vt 0.363983 0.24727600000000005
vt 0.004197 0.24727600000000005
vt 0.004197 0.22654399999999997
vt 0.363803 0.20579800000000004
vt 0.004017 0.20579800000000004
vt 0.004017 0.250382
vt 0.363803 0.250382
vt 0.363803 0.20579800000000004
vt 0.004017 0.20579800000000004
vt 0.004017 0.250382
vt 0.363803 0.250382
vt 0.363983 0.22654399999999997
vt 0.363983 0.24727600000000005
vt 0.004197 0.24727600000000005
vt 0.004197 0.22654399999999997
vt 0.363803 0.20579800000000004
vt 0.004017 0.20579800000000004
vt 0.004017 0.250382
vt 0.363803 0.250382
vt 0.363803 0.20579800000000004
vt 0.004017 0.20579800000000004
vt 0.004017 0.250382
vt 0.363803 0.250382
vt 0.363983 0.22654399999999997
vt 0.363983 0.24727600000000005
vt 0.004197 0.24727600000000005
vt 0.004197 0.22654399999999997
vt 0.363803 0.20579800000000004
vt 0.004017 0.20579800000000004
vt 0.004017 0.250382
vt 0.363803 0.250382
vt 0.363803 0.20579800000000004
vt 0.004017 0.20579800000000004
vt 0.004017 0.250382
vt 0.363803 0.250382
vt 0.363983 0.22654399999999997
vt 0.363983 0.24727600000000005
vt 0.004197 0.24727600000000005
vt 0.004197 0.22654399999999997
vt 0.363803 0.20579800000000004
vt 0.004017 0.20579800000000004
vt 0.004017 0.250382
vt 0.363803 0.250382
vt 0.363803 0.20579800000000004
vt 0.004017 0.20579800000000004
vt 0.004017 0.250382
vt 0.363803 0.250382
vt 0.363983 0.22654399999999997
vt 0.363983 0.24727600000000005
vt 0.004197 0.24727600000000005
vt 0.004197 0.22654399999999997
vt 0.363803 0.20579800000000004
vt 0.004017 0.20579800000000004
vt 0.004017 0.250382
vt 0.363803 0.250382
vt 0.363803 0.20579800000000004
vt 0.004017 0.20579800000000004
vt 0.004017 0.250382
vt 0.363803 0.250382
vt 0.363983 0.22654399999999997
vt 0.363983 0.24727600000000005
vt 0.004197 0.24727600000000005
vt 0.004197 0.22654399999999997
vt 0.363803 0.20579800000000004
vt 0.004017 0.20579800000000004
vt 0.004017 0.250382
vt 0.363803 0.250382
vt 0.363803 0.20579800000000004
vt 0.004017 0.20579800000000004
vt 0.004017 0.250382
vt 0.363803 0.250382
vt 0.363983 0.22654399999999997
vt 0.363983 0.24727600000000005
vt 0.004197 0.24727600000000005
vt 0.004197 0.22654399999999997
vt 0.363803 0.20579800000000004
vt 0.004017 0.20579800000000004
vt 0.004017 0.250382
vt 0.363803 0.250382
vt 0.363803 0.20579800000000004
vt 0.004017 0.20579800000000004
vt 0.004017 0.250382
vt 0.363803 0.250382
vt 0.363983 0.22654399999999997
vt 0.363983 0.24727600000000005
vt 0.004197 0.24727600000000005
vt 0.004197 0.22654399999999997
vt 0.363803 0.20579800000000004
vt 0.004017 0.20579800000000004
vt 0.004017 0.250382
vt 0.363803 0.250382
vt 0.363803 0.20579800000000004
vt 0.004017 0.20579800000000004
vt 0.004017 0.250382
vt 0.363803 0.250382
vt 0.363983 0.22654399999999997
vt 0.363983 0.24727600000000005
vt 0.004197 0.24727600000000005
vt 0.004197 0.22654399999999997
vt 0.363803 0.20579800000000004
vt 0.004017 0.20579800000000004
vt 0.004017 0.250382
vt 0.363803 0.250382
vt 0.363803 0.20579800000000004
vt 0.004017 0.20579800000000004
vt 0.004017 0.250382
vt 0.363803 0.250382
vt 0.363983 0.22654399999999997
vt 0.363983 0.24727600000000005
vt 0.004197 0.24727600000000005
vt 0.004197 0.22654399999999997
vt 0.363803 0.20579800000000004
vt 0.004017 0.20579800000000004
vt 0.004017 0.250382
vt 0.363803 0.250382
vt 0.363803 0.20579800000000004
vt 0.004017 0.20579800000000004
vt 0.004017 0.250382
vt 0.363803 0.250382
vt 0.363983 0.22654399999999997
vt 0.363983 0.24727600000000005
vt 0.004197 0.24727600000000005
vt 0.004197 0.22654399999999997
vt 0.363803 0.20579800000000004
vt 0.004017 0.20579800000000004
vt 0.004017 0.250382
vt 0.363803 0.250382
vt 0.363803 0.20579800000000004
vt 0.004017 0.20579800000000004
vt 0.004017 0.250382
vt 0.363803 0.250382
vt 0.363983 0.22654399999999997
vt 0.363983 0.24727600000000005
vt 0.004197 0.24727600000000005
vt 0.004197 0.22654399999999997
vt 0.363803 0.20579800000000004
vt 0.004017 0.20579800000000004
vt 0.004017 0.250382
vt 0.363803 0.250382
vt 0.363803 0.20579800000000004
vt 0.004017 0.20579800000000004
vt 0.004017 0.250382
vt 0.363803 0.250382
vt 0.363983 0.22654399999999997
vt 0.363983 0.24727600000000005
vt 0.004197 0.24727600000000005
vt 0.004197 0.22654399999999997
vt 0.363803 0.20579800000000004
vt 0.004017 0.20579800000000004
vt 0.004017 0.250382
vt 0.363803 0.250382
vt 0.363803 0.20579800000000004
vt 0.004017 0.20579800000000004
vt 0.004017 0.250382
vt 0.363803 0.250382
vt 0.363983 0.22654399999999997
vt 0.363983 0.24727600000000005
vt 0.004197 0.24727600000000005
vt 0.004197 0.22654399999999997
vt 0.363803 0.20579800000000004
vt 0.004017 0.20579800000000004
vt 0.004017 0.250382
vt 0.363803 0.250382
vt 0.363803 0.20579800000000004
vt 0.004017 0.20579800000000004
vt 0.004017 0.250382
vt 0.363803 0.250382
vt 0.363983 0.22654399999999997
vt 0.363983 0.24727600000000005
vt 0.004197 0.24727600000000005
vt 0.004197 0.22654399999999997
vt 0.363803 0.20579800000000004
vt 0.004017 0.20579800000000004
vt 0.004017 0.250382
vt 0.363803 0.250382
vt 0.363803 0.20579800000000004
vt 0.004017 0.20579800000000004
vt 0.004017 0.250382
vt 0.363803 0.250382
vt 0.363983 0.22654399999999997
vt 0.363983 0.24727600000000005
vt 0.004197 0.24727600000000005
vt 0.004197 0.22654399999999997
vt 0.363803 0.20579800000000004
vt 0.004017 0.20579800000000004
vt 0.004017 0.250382
vt 0.363803 0.250382
vt 0.363803 0.20579800000000004
vt 0.004017 0.20579800000000004
vt 0.004017 0.250382
vt 0.363803 0.250382
vt 0.363983 0.22654399999999997
vt 0.363983 0.24727600000000005
vt 0.004197 0.24727600000000005
vt 0.004197 0.22654399999999997
vt 0.363803 0.20579800000000004
vt 0.004017 0.20579800000000004
vt 0.004017 0.250382
vt 0.363803 0.250382
vt 0.363803 0.20579800000000004
vt 0.004017 0.20579800000000004
vt 0.004017 0.250382
vt 0.363803 0.250382
vt 0.363983 0.22654399999999997
vt 0.363983 0.24727600000000005
vt 0.004197 0.24727600000000005
vt 0.004197 0.22654399999999997
vt 0.363803 0.20579800000000004
vt 0.004017 0.20579800000000004
vt 0.004017 0.250382
vt 0.363803 0.250382
vt 0.363803 0.20579800000000004
vt 0.004017 0.20579800000000004
vt 0.004017 0.250382
vt 0.363803 0.250382
vt 0.363983 0.22654399999999997
vt 0.363983 0.24727600000000005
vt 0.004197 0.24727600000000005
vt 0.004197 0.22654399999999997
vt 0.363803 0.20579800000000004
vt 0.004017 0.20579800000000004
vt 0.004017 0.250382
vt 0.363803 0.250382
vt 0.363803 0.20579800000000004
vt 0.004017 0.20579800000000004
vt 0.004017 0.250382
vt 0.363803 0.250382
vt 0.363983 0.22654399999999997
vt 0.363983 0.24727600000000005
vt 0.004197 0.24727600000000005
vt 0.004197 0.22654399999999997
vt 0.363803 0.20579800000000004
vt 0.004017 0.20579800000000004
vt 0.004017 0.250382
vt 0.363803 0.250382
vt 0.363803 0.20579800000000004
vt 0.004017 0.20579800000000004
vt 0.004017 0.250382
vt 0.363803 0.250382
vt 0.363983 0.22654399999999997
vt 0.363983 0.24727600000000005
vt 0.004197 0.24727600000000005
vt 0.004197 0.22654399999999997
vt 0.363803 0.20579800000000004
vt 0.004017 0.20579800000000004
vt 0.004017 0.250382
vt 0.363803 0.250382
vt 0.363803 0.20579800000000004
vt 0.004017 0.20579800000000004
vt 0.004017 0.250382
vt 0.363803 0.250382
vt 0.363983 0.22654399999999997
vt 0.363983 0.24727600000000005
vt 0.004197 0.24727600000000005
vt 0.004197 0.22654399999999997
vt 0.363803 0.20579800000000004
vt 0.004017 0.20579800000000004
vt 0.004017 0.250382
vt 0.363803 0.250382
vt 0.363803 0.20579800000000004
vt 0.004017 0.20579800000000004
vt 0.004017 0.250382
vt 0.363803 0.250382
vt 0.363983 0.22654399999999997
vt 0.363983 0.24727600000000005
vt 0.004197 0.24727600000000005
vt 0.004197 0.22654399999999997
vn 0 -1 0
vn -1 0 0
vn 0 0 -1
vn 1 0 0
vn 0 0 1
vn 0 1 0
vn 1 0 0
vn 0 0 -1
vn -1 0 0
vn 0 0 1
vn -1 0 0
vn 0 0 -1
vn 1 0 0
vn 0 0 1
vn 0 1 0
vn 0 1 0
vn 0 1 0
vn 0 1 0
vn 1 0 0
vn -1 0 0
vn 0 1 0
vn 1 0 0
vn -1 0 0
vn 0 1 0
vn 0 0 1
vn 0 0 -1
vn 0 1 0
vn 0 0 1
vn 0 0 -1
vn 0 1 0
vn 0 0 1
vn 0 0 -1
vn 0 1 0
vn 0 0 1
vn 0 0 -1
vn 0 1 0
vn 1 0 0
vn -1 0 0
vn 0 1 0
vn 1 0 0
vn -1 0 0
vn 0 1 0
vn 1 0 0
vn -1 0 0
vn 0 1 0
vn 1 0 0
vn -1 0 0
vn 0 1 0
vn 1 0 0
vn -1 0 0
vn 0 1 0
vn 0 0 1
vn 0 0 -1
vn 0 1 0
vn 0 0 1
vn 0 0 -1
vn 0 1 0
vn -1 0 0
vn 1 0 0
vn 0 1 0
vn -1 0 0
vn 1 0 0
vn 0 1 0
vn 0 0 1
vn 0 0 -1
vn 0 1 0
vn 0 0 1
vn 0 0 -1
vn 0 1 0
vn 0 0 1
vn 0 0 -1
vn 0 1 0
vn 0 0 1
vn 0 0 -1
vn 0 1 0
vn 0 0 1
vn 0 0 -1
vn 0 1 0
vn 0 0 1
vn 0 0 -1
vn 0 1 0
vn 0 0 1
vn 0 0 -1
vn 0 1 0
vn 0 0 1
vn 0 0 -1
vn 0 1 0
vn 0 0 1
vn 0 0 -1
vn 0 1 0
vn 0 0 1
vn 0 0 -1
vn 0 1 0
vn -1 0 0
vn 1 0 0
vn 0 1 0
vn -1 0 0
vn 1 0 0
vn 0 1 0
vn -1 0 0
vn 1 0 0
vn 0 1 0
vn -1 0 0
vn 1 0 0
vn 0 1 0
vn 0 0 1
vn 0 0 -1
vn 0 1 0
vn 0 0 1
vn 0 0 -1
vn 0 1 0
vn 0 0 1
vn 0 0 -1
vn 0 1 0
vn 0 0 1
vn 0 0 -1
vn 0 1 0
vn -1 0 0
vn 0.9999999998031873 -0.0000198399999966657 0
vn 0 1 0
vn -1 0 0
vn 0.9999999998031873 -0.0000198399999966657 0
vn 0 1 0
usemtl m_c4230425-bc98-f697-4d7b-c143de351ca5
f 1/1/1 2/2/1 4/3/1 3/4/1
f 5/5/2 6/6/2 2/7/2 1/8/2
f 6/9/3 7/10/3 4/11/3 2/12/3
f 7/13/4 8/14/4 3/15/4 4/16/4
f 8/17/5 5/18/5 1/19/5 3/20/5
f 9/21/6 10/22/6 12/23/6 11/24/6
f 8/25/7 7/26/7 14/27/7 13/28/7
f 7/29/8 6/30/8 15/31/8 14/32/8
f 6/33/9 5/34/9 16/35/9 15/36/9
f 5/37/10 8/38/10 13/39/10 16/40/10
f 12/41/11 10/42/11 18/43/11 17/44/11
f 10/45/12 9/46/12 19/47/12 18/48/12
f 9/49/13 11/50/13 20/51/13 19/52/13
f 11/53/14 12/54/14 17/55/14 20/56/14
f 18/57/15 13/58/15 14/59/15 17/60/15
f 14/61/16 15/62/16 20/63/16 17/64/16
f 15/65/17 16/66/17 19/67/17 20/68/17
f 16/69/18 13/70/18 18/71/18 19/72/18
f 21/73/19 22/74/19 24/75/19 23/76/19
f 25/77/20 26/78/20 28/79/20 27/80/20
f 21/81/21 26/82/21 25/83/21 22/84/21
f 29/85/22 30/86/22 32/87/22 31/88/22
f 33/89/23 34/90/23 36/91/23 35/92/23
f 29/93/24 34/94/24 33/95/24 30/96/24
f 37/97/25 38/98/25 40/99/25 39/100/25
f 41/101/26 42/102/26 44/103/26 43/104/26
f 37/105/27 42/106/27 41/107/27 38/108/27
f 45/109/28 46/110/28 48/111/28 47/112/28
f 49/113/29 50/114/29 52/115/29 51/116/29
f 45/117/30 50/118/30 49/119/30 46/120/30
f 53/121/31 54/122/31 56/123/31 55/124/31
f 57/125/32 58/126/32 60/127/32 59/128/32
f 53/129/33 58/130/33 57/131/33 54/132/33
f 61/133/34 62/134/34 64/135/34 63/136/34
f 65/137/35 66/138/35 68/139/35 67/140/35
f 61/141/36 66/142/36 65/143/36 62/144/36
f 69/145/37 70/146/37 72/147/37 71/148/37
f 73/149/38 74/150/38 76/151/38 75/152/38
f 69/153/39 74/154/39 73/155/39 70/156/39
f 77/157/40 78/158/40 80/159/40 79/160/40
f 81/161/41 82/162/41 84/163/41 83/164/41
f 77/165/42 82/166/42 81/167/42 78/168/42
f 85/169/43 86/170/43 88/171/43 87/172/43
f 89/173/44 90/174/44 92/175/44 91/176/44
f 85/177/45 90/178/45 89/179/45 86/180/45
f 93/181/46 94/182/46 96/183/46 95/184/46
f 97/185/47 98/186/47 100/187/47 99/188/47
f 93/189/48 98/190/48 97/191/48 94/192/48
f 101/193/49 102/194/49 104/195/49 103/196/49
f 105/197/50 106/198/50 108/199/50 107/200/50
f 101/201/51 106/202/51 105/203/51 102/204/51
f 109/205/52 110/206/52 112/207/52 111/208/52
f 113/209/53 114/210/53 116/211/53 115/212/53
f 109/213/54 114/214/54 113/215/54 110/216/54
f 117/217/55 118/218/55 120/219/55 119/220/55
f 121/221/56 122/222/56 124/223/56 123/224/56
f 117/225/57 122/226/57 121/227/57 118/228/57
f 125/229/58 126/230/58 128/231/58 127/232/58
f 129/233/59 130/234/59 132/235/59 131/236/59
f 125/237/60 130/238/60 129/239/60 126/240/60
f 133/241/61 134/242/61 136/243/61 135/244/61
f 137/245/62 138/246/62 140/247/62 139/248/62
f 133/249/63 138/250/63 137/251/63 134/252/63
f 141/253/64 142/254/64 144/255/64 143/256/64
f 145/257/65 146/258/65 148/259/65 147/260/65
f 141/261/66 146/262/66 145/263/66 142/264/66
f 149/265/67 150/266/67 152/267/67 151/268/67
f 153/269/68 154/270/68 156/271/68 155/272/68
f 149/273/69 154/274/69 153/275/69 150/276/69
f 157/277/70 158/278/70 160/279/70 159/280/70
f 161/281/71 162/282/71 164/283/71 163/284/71
f 157/285/72 162/286/72 161/287/72 158/288/72
f 165/289/73 166/290/73 168/291/73 167/292/73
f 169/293/74 170/294/74 172/295/74 171/296/74
f 165/297/75 170/298/75 169/299/75 166/300/75
f 173/301/76 174/302/76 176/303/76 175/304/76
f 177/305/77 178/306/77 180/307/77 179/308/77
f 173/309/78 178/310/78 177/311/78 174/312/78
f 181/313/79 182/314/79 184/315/79 183/316/79
f 185/317/80 186/318/80 188/319/80 187/320/80
f 181/321/81 186/322/81 185/323/81 182/324/81
f 189/325/82 190/326/82 192/327/82 191/328/82
f 193/329/83 194/330/83 196/331/83 195/332/83
f 189/333/84 194/334/84 193/335/84 190/336/84
f 197/337/85 198/338/85 200/339/85 199/340/85
f 201/341/86 202/342/86 204/343/86 203/344/86
f 197/345/87 202/346/87 201/347/87 198/348/87
f 205/349/88 206/350/88 208/351/88 207/352/88
f 209/353/89 210/354/89 212/355/89 211/356/89
f 205/357/90 210/358/90 209/359/90 206/360/90
f 213/361/91 214/362/91 216/363/91 215/364/91
f 217/365/92 218/366/92 220/367/92 219/368/92
f 213/369/93 218/370/93 217/371/93 214/372/93
f 221/373/94 222/374/94 224/375/94 223/376/94
f 225/377/95 226/378/95 228/379/95 227/380/95
f 221/381/96 226/382/96 225/383/96 222/384/96
f 229/385/97 230/386/97 232/387/97 231/388/97
f 233/389/98 234/390/98 236/391/98 235/392/98
f 229/393/99 234/394/99 233/395/99 230/396/99
f 237/397/100 238/398/100 240/399/100 239/400/100
f 241/401/101 242/402/101 244/403/101 243/404/101
f 237/405/102 242/406/102 241/407/102 238/408/102
f 245/409/103 246/410/103 248/411/103 247/412/103
f 249/413/104 250/414/104 252/415/104 251/416/104
f 245/417/105 250/418/105 249/419/105 246/420/105
f 253/421/106 254/422/106 256/423/106 255/424/106
f 257/425/107 258/426/107 260/427/107 259/428/107
f 253/429/108 258/430/108 257/431/108 254/432/108
f 261/433/109 262/434/109 264/435/109 263/436/109
f 265/437/110 266/438/110 268/439/110 267/440/110
f 261/441/111 266/442/111 265/443/111 262/444/111
f 269/445/112 270/446/112 272/447/112 271/448/112
f 273/449/113 274/450/113 276/451/113 275/452/113
f 269/453/114 274/454/114 273/455/114 270/456/114
f 277/457/115 278/458/115 280/459/115 279/460/115
f 281/461/116 282/462/116 284/463/116 283/464/116
f 277/465/117 282/466/117 281/467/117 278/468/117
f 285/469/118 286/470/118 288/471/118 287/472/118
f 289/473/119 290/474/119 292/475/119 291/476/119
f 285/477/120 290/478/120 289/479/120 286/480/120
f 293/481/121 294/482/121 296/483/121 295/484/121
f 297/485/122 298/486/122 300/487/122 299/488/122
f 293/489/123 298/490/123 297/491/123 294/492/123
o chase3
v 0.158177 0.9606200000000001 0.37814987728898053
v -0.1384001806829207 0.9606200000000001 0.4040075000000001
v 0.158177 0.934380092272203 0.37814987728898053
v -0.1384001806829207 0.934380092272203 0.4040075000000001
v -0.15432299999999993 0.9606200000000001 0.1798662062520317
v -0.15432299999999993 0.934380092272203 0.1798662062520317
v 0.14225418068292084 0.9606200000000001 0.15400750000000013
v 0.14225418068292084 0.934380092272203 0.15400750000000013
v -0.11922726747206658 0.9606200000000001 0.2167531929244773
v -0.10894492106663317 0.9606200000000001 0.36149260131108474
v 0.1230812674720666 0.9606200000000001 0.34126289061653503
v 0.11279892106663336 0.9606200000000001 0.19652239868891552
v -0.10894492106663317 0.93437 0.36149260131108474
v 0.1230812674720666 0.93437 0.34126289061653503
v 0.11279892106663336 0.93437 0.19652239868891552
v -0.11922726747206658 0.93437 0.2167531929244773
vt 0.982263 0.29326300000000005
vt 0.769293 0.29326300000000005
vt 0.769293 0.26980800000000005
vt 0.982263 0.26980800000000005
vt 0.911212 0.29265300000000005
vt 0.769311 0.29265300000000005
vt 0.769311 0.26919800000000005
vt 0.911212 0.26919800000000005
vt 0.982263 0.292643
vt 0.769293 0.292643
vt 0.769311 0.26919800000000005
vt 0.982263 0.269188
vt 0.911212 0.293273
vt 0.769293 0.29326300000000005
vt 0.769293 0.26980800000000005
vt 0.911212 0.269818
vt 0.788008 0.286575
vt 0.770228 0.26919000000000004
vt 0.912129 0.26919000000000004
vt 0.894349 0.286575
vt 0.767886 0.272467
vt 0.980856 0.272467
vt 0.963471 0.2902469999999999
vt 0.785271 0.2902469999999999
vt 0.912129 0.28955
vt 0.770228 0.28955
vt 0.788008 0.272165
vt 0.894349 0.272165
vt 0.980856 0.2900130000000001
vt 0.767886 0.2900130000000001
vt 0.785271 0.27223299999999995
vt 0.963471 0.27223299999999995
vt 0.934902 0.292644
vt 0.769293 0.292643
vt 0.769311 0.26919800000000005
vt 0.934902 0.269189
vt 0.863833 0.29328200000000004
vt 0.769293 0.29326300000000005
vt 0.769293 0.26980800000000005
vt 0.863833 0.26982700000000004
vt 0.934902 0.29295899999999997
vt 0.769311 0.29295899999999997
vt 0.769311 0.26950399999999997
vt 0.934902 0.26950399999999997
vt 0.863833 0.292968
vt 0.769311 0.29295899999999997
vt 0.769311 0.26950399999999997
vt 0.863833 0.269513
vn 0.08685732503499041 0 0.9962207612210087
vn -0.9974862261340651 0 0.0708606285099214
vn -0.08686093725488533 0 -0.9962204462764269
vn 0.9974862503464323 0 -0.07086028767804077
vn 0 1 0
vn 0 1 0
vn 0 1 0
vn 0 1 0
vn -0.08685768310370537 0 -0.9962207300020696
vn -0.99748617891975 0 0.07086129313014831
vn 0.08686230026247127 0 0.996220327434204
vn 0.9974861414237278 0 -0.07086182094472963
usemtl m_c4230425-bc98-f697-4d7b-c143de351ca5
f 301/493/124 302/494/124 304/495/124 303/496/124
f 302/497/125 305/498/125 306/499/125 304/500/125
f 305/501/126 307/502/126 308/503/126 306/504/126
f 307/505/127 301/506/127 303/507/127 308/508/127
f 309/509/128 305/510/128 302/511/128 310/512/128
f 302/513/129 301/514/129 311/515/129 310/516/129
f 301/517/130 307/518/130 312/519/130 311/520/130
f 307/521/131 305/522/131 309/523/131 312/524/131
f 310/525/132 311/526/132 314/527/132 313/528/132
f 311/529/133 312/530/133 315/531/133 314/532/133
f 312/533/134 309/534/134 316/535/134 315/536/134
f 309/537/135 310/538/135 313/539/135 316/540/135
o chase1
v 0.158177 0.9061200000000001 0.37275800000000014
v -0.15432299999999993 0.9061200000000001 0.37275800000000014
v 0.158177 0.879880092272203 0.37275800000000014
v -0.15432299999999993 0.879880092272203 0.37275800000000014
v -0.15432299999999993 0.9061200000000001 0.1852580000000001
v -0.15432299999999993 0.879880092272203 0.1852580000000001
v 0.15817700000000012 0.9061200000000001 0.1852580000000002
v 0.15817700000000012 0.879880092272203 0.1852580000000002
v -0.12031424496988502 0.9061200000000001 0.21846854216867478
v -0.12031424496988502 0.9061200000000001 0.3395474578313254
v 0.1241682449698851 0.9061200000000001 0.33954745783132545
v 0.12416824496988521 0.9061200000000001 0.21846854216867478
v -0.12031424496988502 0.87987 0.3395474578313254
v 0.1241682449698851 0.87987 0.33954745783132545
v 0.12416824496988521 0.87987 0.21846854216867478
v -0.12031424496988502 0.87987 0.21846854216867478
vt 0.982263 0.29326300000000005
vt 0.769293 0.29326300000000005
vt 0.769293 0.26980800000000005
vt 0.982263 0.26980800000000005
vt 0.911212 0.29265300000000005
vt 0.769311 0.29265300000000005
vt 0.769311 0.26919800000000005
vt 0.911212 0.26919800000000005
vt 0.982263 0.292643
vt 0.769293 0.292643
vt 0.769311 0.26919800000000005
vt 0.982263 0.269188
vt 0.911212 0.293273
vt 0.769293 0.29326300000000005
vt 0.769293 0.26980800000000005
vt 0.911212 0.269818
vt 0.788008 0.286575
vt 0.770228 0.26919000000000004
vt 0.912129 0.26919000000000004
vt 0.894349 0.286575
vt 0.767886 0.272467
vt 0.980856 0.272467
vt 0.963471 0.2902469999999999
vt 0.785271 0.2902469999999999
vt 0.912129 0.28955
vt 0.770228 0.28955
vt 0.788008 0.272165
vt 0.894349 0.272165
vt 0.980856 0.2900130000000001
vt 0.767886 0.2900130000000001
vt 0.785271 0.27223299999999995
vt 0.963471 0.27223299999999995
vt 0.934902 0.292644
vt 0.769293 0.292643
vt 0.769311 0.26919800000000005
vt 0.934902 0.269189
vt 0.863833 0.29328200000000004
vt 0.769293 0.29326300000000005
vt 0.769293 0.26980800000000005
vt 0.863833 0.26982700000000004
vt 0.934902 0.29295899999999997
vt 0.769311 0.29295899999999997
vt 0.769311 0.26950399999999997
vt 0.934902 0.26950399999999997
vt 0.863833 0.292968
vt 0.769311 0.29295899999999997
vt 0.769311 0.26950399999999997
vt 0.863833 0.269513
vn 0 0 1
vn -1 0 0
vn 0 0 -1
vn 1 0 0
vn 0 1 0
vn 0 1 0
vn 0 1 0
vn 0 1 0
vn 0 0 -1
vn -1 0 0
vn 0 0 1
vn 1 0 0
usemtl m_c4230425-bc98-f697-4d7b-c143de351ca5
f 317/541/136 318/542/136 320/543/136 319/544/136
f 318/545/137 321/546/137 322/547/137 320/548/137
f 321/549/138 323/550/138 324/551/138 322/552/138
f 323/553/139 317/554/139 319/555/139 324/556/139
f 325/557/140 321/558/140 318/559/140 326/560/140
f 318/561/141 317/562/141 327/563/141 326/564/141
f 317/565/142 323/566/142 328/567/142 327/568/142
f 323/569/143 321/570/143 325/571/143 328/572/143
f 326/573/144 327/574/144 330/575/144 329/576/144
f 327/577/145 328/578/145 331/579/145 330/580/145
f 328/581/146 325/582/146 332/583/146 331/584/146
f 325/585/147 326/586/147 329/587/147 332/588/147
o plateLeft
v 0.3751770000000001 0.908625 -0.18528699999999976
v 0.0626770000000001 0.908625 -0.18528699999999987
v 0.3751770000000001 0.877375 -0.18528699999999976
v 0.0626770000000001 0.877375 -0.18528699999999987
v 0.0626770000000002 0.908625 -0.37278699999999987
v 0.0626770000000002 0.877375 -0.37278699999999987
v 0.3751770000000002 0.908625 -0.37278699999999976
v 0.3751770000000002 0.877375 -0.37278699999999976
vt 0.982702 0.29433
vt 0.766073 0.29433
vt 0.766073 0.267486
vt 0.982702 0.267486
vt 0.983927 0.29466799999999993
vt 0.848635 0.29466799999999993
vt 0.848635 0.26782400000000006
vt 0.983927 0.26782400000000006
vt 0.983702 0.294443
vt 0.767073 0.294443
vt 0.767073 0.2675989999999999
vt 0.983702 0.2675989999999999
vt 0.983927 0.294555
vt 0.848635 0.294555
vt 0.848635 0.26771100000000003
vt 0.983927 0.26771100000000003
vt 0.976683 0.29990000000000006
vt 0.976683 0.451427
vt 0.774134 0.451427
vt 0.774134 0.29990000000000006
vn 0 0 1
vn -1 0 0
vn 0 0 -1
vn 1 0 0
vn 0 1 0
usemtl m_c4230425-bc98-f697-4d7b-c143de351ca5
f 333/589/148 334/590/148 336/591/148 335/592/148
f 334/593/149 337/594/149 338/595/149 336/596/149
f 337/597/150 339/598/150 340/599/150 338/600/150
f 339/601/151 333/602/151 335/603/151 340/604/151
f 333/605/152 339/606/152 337/607/152 334/608/152
o chase4
v 0.149138908178852 0.9881199999999999 0.40400800000000014
v -0.15432250000000003 0.9881199999999999 0.38896969016638716
v 0.149138908178852 0.9618800922722028 0.40400800000000014
v -0.15432250000000003 0.9618800922722028 0.38896969016638716
v -0.145283908178852 0.9881199999999999 0.1540080000000001
v -0.145283908178852 0.9618800922722028 0.1540080000000001
v 0.15817750000000008 0.9881199999999999 0.16904517640658306
v 0.15817750000000008 0.9618800922722028 0.16904517640658306
v -0.11386004685567647 0.9881199999999999 0.19726184231763166
v -0.11969703383994451 0.9881199999999999 0.3489891851113026
v 0.11771504685567657 0.9881199999999999 0.3607541576823685
v 0.12355203383994462 0.9881199999999999 0.20902681488869757
v -0.11969703383994451 0.9618699999999998 0.3489891851113026
v 0.11771504685567657 0.9618699999999998 0.3607541576823685
v 0.12355203383994462 0.9618699999999998 0.20902681488869757
v -0.11386004685567647 0.9618699999999998 0.19726184231763166
vt 0.982263 0.29326300000000005
vt 0.769293 0.29326300000000005
vt 0.769293 0.26980800000000005
vt 0.982263 0.26980800000000005
vt 0.911212 0.29265300000000005
vt 0.769311 0.29265300000000005
vt 0.769311 0.26919800000000005
vt 0.911212 0.26919800000000005
vt 0.982263 0.292643
vt 0.769293 0.292643
vt 0.769311 0.26919800000000005
vt 0.982263 0.269188
vt 0.911212 0.293273
vt 0.769293 0.29326300000000005
vt 0.769293 0.26980800000000005
vt 0.911212 0.269818
vt 0.788008 0.286575
vt 0.770228 0.26919000000000004
vt 0.912129 0.26919000000000004
vt 0.894349 0.286575
vt 0.767886 0.272467
vt 0.980856 0.272467
vt 0.963471 0.2902469999999999
vt 0.785271 0.2902469999999999
vt 0.912129 0.28955
vt 0.770228 0.28955
vt 0.788008 0.272165
vt 0.894349 0.272165
vt 0.980856 0.2900130000000001
vt 0.767886 0.2900130000000001
vt 0.785271 0.27223299999999995
vt 0.963471 0.27223299999999995
vt 0.934902 0.292644
vt 0.769293 0.292643
vt 0.769311 0.26919800000000005
vt 0.934902 0.269189
vt 0.863833 0.29328200000000004
vt 0.769293 0.29326300000000005
vt 0.769293 0.26980800000000005
vt 0.863833 0.26982700000000004
vt 0.934902 0.29295899999999997
vt 0.769311 0.29295899999999997
vt 0.769311 0.26950399999999997
vt 0.934902 0.26950399999999997
vt 0.863833 0.292968
vt 0.769311 0.29295899999999997
vt 0.769311 0.26950399999999997
vt 0.863833 0.269513
vn -0.04949518426042243 0 0.9987743622735953
vn -0.99926091266927 0 -0.03843993251005925
vn 0.04949146298020243 0 -0.9987745466781177
vn 0.9992609197918526 0 0.038439747355319624
vn 0 1 0
vn 0 1 0
vn 0 1 0
vn 0 1 0
vn 0.049494336752017656 0 -0.9987744042722951
vn -0.9992608407382114 0 -0.03844180234019696
vn -0.04949433675201779 0 0.998774404272295
vn 0.9992608407382114 0 0.03844180234019768
usemtl m_c4230425-bc98-f697-4d7b-c143de351ca5
f 341/609/153 342/610/153 344/611/153 343/612/153
f 342/613/154 345/614/154 346/615/154 344/616/154
f 345/617/155 347/618/155 348/619/155 346/620/155
f 347/621/156 341/622/156 343/623/156 348/624/156
f 349/625/157 345/626/157 342/627/157 350/628/157
f 342/629/158 341/630/158 351/631/158 350/632/158
f 341/633/159 347/634/159 352/635/159 351/636/159
f 347/637/160 345/638/160 349/639/160 352/640/160
f 350/641/161 351/642/161 354/643/161 353/644/161
f 351/645/162 352/646/162 355/647/162 354/648/162
f 352/649/163 349/650/163 356/651/163 355/652/163
f 349/653/164 350/654/164 353/655/164 356/656/164
o plateRight
v -0.06282299999999985 0.877375 -0.18528699999999987
v -0.37532299999999985 0.877375 -0.18528699999999998
v -0.37532299999999985 0.877375 -0.372787
v -0.06282299999999985 0.877375 -0.37278699999999987
v -0.06282299999999985 0.908625 -0.18528699999999987
v -0.06282299999999985 0.908625 -0.37278699999999987
v -0.37532299999999985 0.908625 -0.18528699999999998
v -0.37532299999999985 0.908625 -0.372787
vt 0.774134 0.29990000000000006
vt 0.976683 0.29990000000000006
vt 0.976683 0.451427
vt 0.774134 0.451427
vt 0.983702 0.2675989999999999
vt 0.983702 0.294443
vt 0.767073 0.294443
vt 0.767073 0.2675989999999999
vt 0.983927 0.294555
vt 0.848635 0.294555
vt 0.848635 0.26771100000000003
vt 0.983927 0.26771100000000003
vt 0.982702 0.29433
vt 0.766073 0.29433
vt 0.766073 0.267486
vt 0.982702 0.267486
vt 0.983927 0.26782400000000006
vt 0.983927 0.29466799999999993
vt 0.848635 0.29466799999999993
vt 0.848635 0.26782400000000006
vn 0 1 0
vn 0 0 -1
vn 1 0 0
vn 0 0 1
vn -1 0 0
usemtl m_c4230425-bc98-f697-4d7b-c143de351ca5
f 363/657/165 361/658/165 362/659/165 364/660/165
f 359/661/166 364/662/166 362/663/166 360/664/166
f 362/665/167 361/666/167 357/667/167 360/668/167
f 361/669/168 363/670/168 358/671/168 357/672/168
f 358/673/169 363/674/169 364/675/169 359/676/169
o chase2
v 0.14057659528332733 0.9331200000000001 0.40400800000000014
v -0.15432249999999997 0.9331200000000001 0.37559062584684
v 0.14057659528332733 0.906880092272203 0.40400800000000014
v -0.15432249999999997 0.906880092272203 0.37559062584684
v -0.13672159528332734 0.9331200000000001 0.15400800000000003
v -0.13672159528332734 0.906880092272203 0.15400800000000003
v 0.1581775000000002 0.9331200000000001 0.1824253741531603
v 0.15817652676777916 0.906880092272203 0.1824253741531603
v -0.10774652559990028 0.9331200000000001 0.196347850784667
v -0.11911193147666571 0.9331200000000001 0.33943592213360785
v 0.11160152559990033 0.9331200000000001 0.3616681492153333
v 0.12296693147666582 0.9331200000000001 0.21858007786639233
v -0.11911193147666571 0.90687 0.33943592213360785
v 0.1116005523676793 0.90687 0.3616681492153333
v 0.12296693147666582 0.90687 0.21858007786639233
v -0.10774652559990028 0.90687 0.196347850784667
vt 0.982263 0.29326300000000005
vt 0.769293 0.29326300000000005
vt 0.769293 0.26980800000000005
vt 0.982263 0.26980800000000005
vt 0.911212 0.29265300000000005
vt 0.769311 0.29265300000000005
vt 0.769311 0.26919800000000005
vt 0.911212 0.26919800000000005
vt 0.982263 0.292643
vt 0.769293 0.292643
vt 0.769311 0.26919800000000005
vt 0.982263 0.269188
vt 0.911212 0.293273
vt 0.769293 0.29326300000000005
vt 0.769293 0.26980800000000005
vt 0.911212 0.269818
vt 0.788008 0.286575
vt 0.770228 0.26919000000000004
vt 0.912129 0.26919000000000004
vt 0.894349 0.286575
vt 0.767886 0.272467
vt 0.980856 0.272467
vt 0.963471 0.2902469999999999
vt 0.785271 0.2902469999999999
vt 0.912129 0.28955
vt 0.770228 0.28955
vt 0.788008 0.272165
vt 0.894349 0.272165
vt 0.980856 0.2900130000000001
vt 0.767886 0.2900130000000001
vt 0.785271 0.27223299999999995
vt 0.963471 0.27223299999999995
vt 0.934902 0.292644
vt 0.769293 0.292643
vt 0.769311 0.26919800000000005
vt 0.934902 0.269189
vt 0.863833 0.29328200000000004
vt 0.769293 0.29326300000000005
vt 0.769293 0.26980800000000005
vt 0.863833 0.26982700000000004
vt 0.934902 0.29295899999999997
vt 0.769311 0.29295899999999997
vt 0.769311 0.26950399999999997
vt 0.934902 0.26950399999999997
vt 0.863833 0.292968
vt 0.769311 0.29295899999999997
vt 0.769311 0.26950399999999997
vt 0.863833 0.269513
vn -0.09591872912048433 0 0.9953891688198698
vn -0.9968600744890354 0 -0.07918328036722705
vn 0.09591872911987737 -0.0000035576038890136115 -0.9953891688135706
vn 0.9968600744890354 0 0.0791832803672278
vn 0 1 0
vn 0 1 0
vn 0 1 0
vn 0 1 0
vn 0.09591862795047504 -0.0000035562323550757795 -0.9953891785625618
vn -0.9968603301861462 0 -0.07918006126019245
vn -0.09591862795108134 0 0.9953891785688561
vn 0.9968603301861461 0 0.07918006126019286
usemtl m_c4230425-bc98-f697-4d7b-c143de351ca5
f 365/677/170 366/678/170 368/679/170 367/680/170
f 366/681/171 369/682/171 370/683/171 368/684/171
f 369/685/172 371/686/172 372/687/172 370/688/172
f 371/689/173 365/690/173 367/691/173 372/692/173
f 373/693/174 369/694/174 366/695/174 374/696/174
f 366/697/175 365/698/175 375/699/175 374/700/175
f 365/701/176 371/702/176 376/703/176 375/704/176
f 371/705/177 369/706/177 373/707/177 376/708/177
f 374/709/178 375/710/178 378/711/178 377/712/178
f 375/713/179 376/714/179 379/715/179 378/716/179
f 376/717/180 373/718/180 380/719/180 379/720/180
f 373/721/181 374/722/181 377/723/181 380/724/181
o bookRed
v 0.4569270000000002 0.978375 -0.11803699999999973
v 0.019427000000000194 0.978375 -0.11803699999999984
v 0.4569270000000002 0.884625 -0.11803699999999973
v 0.019427000000000194 0.884625 -0.11803699999999984
v 0.019427000000000305 0.978375 -0.43053699999999984
v 0.019427000000000305 0.884625 -0.43053699999999984
v 0.4569270000000003 0.978375 -0.4305369999999997
v 0.4569270000000003 0.884625 -0.4305369999999997
vt 0.784482 0.998611
vt 0.784222 0.849637
vt 0.826635 0.849563
vt 0.826895 0.998537
vt 0.794262 0.890761
vt 0.794448 0.997111
vt 0.752035 0.997185
vt 0.751849 0.890835
vt 0.874681 0.82991
vt 0.874959 0.999673
vt 0.829578 0.999758
vt 0.829299 0.829994
vt 0.752035 0.997185
vt 0.751844 0.890859
vt 0.794262 0.890761
vt 0.794448 0.997111
vt 0.983704 0.999584
vt 0.877354 0.999584
vt 0.877354 0.829008
vt 0.983704 0.829008
vn 0 0 1
vn -1 0 0
vn 0 0 -1
vn 1 0 0
vn 0 1 0
usemtl m_c4230425-bc98-f697-4d7b-c143de351ca5
f 381/725/182 382/726/182 384/727/182 383/728/182
f 382/729/183 385/730/183 386/731/183 384/732/183
f 385/733/184 387/734/184 388/735/184 386/736/184
f 387/737/185 381/738/185 383/739/185 388/740/185
f 381/741/186 387/742/186 385/743/186 382/744/186
o bookBlue
v 0.4569270000000002 0.978375 -0.11803699999999973
v 0.019427000000000194 0.978375 -0.11803699999999984
v 0.4569270000000002 0.884625 -0.11803699999999973
v 0.019427000000000194 0.884625 -0.11803699999999984
v 0.019427000000000305 0.978375 -0.43053699999999984
v 0.019427000000000305 0.884625 -0.43053699999999984
v 0.4569270000000003 0.978375 -0.4305369999999997
v 0.4569270000000003 0.884625 -0.4305369999999997
vt 0.784482 0.812111
vt 0.784222 0.663137
vt 0.826635 0.663063
vt 0.826895 0.812037
vt 0.794262 0.704261
vt 0.794448 0.810611
vt 0.752035 0.810685
vt 0.751849 0.704335
vt 0.874681 0.657682
vt 0.874959 0.812167
vt 0.829578 0.812244
vt 0.829299 0.657759
vt 0.752035 0.810685
vt 0.751844 0.704359
vt 0.794262 0.704261
vt 0.794448 0.810611
vt 0.983704 0.812085
vt 0.877354 0.812085
vt 0.877354 0.656861
vt 0.983704 0.656861
vn 0 0 1
vn -1 0 0
vn 0 0 -1
vn 1 0 0
vn 0 1 0
usemtl m_c4230425-bc98-f697-4d7b-c143de351ca5
f 389/745/187 390/746/187 392/747/187 391/748/187
f 390/749/188 393/750/188 394/751/188 392/752/188
f 393/753/189 395/754/189 396/755/189 394/756/189
f 395/757/190 389/758/190 391/759/190 396/760/190
f 389/761/191 395/762/191 393/763/191 390/764/191
o bookEnchant
v 0.4569270000000002 0.978375 -0.11803699999999973
v 0.019427000000000194 0.978375 -0.11803699999999984
v 0.4569270000000002 0.884625 -0.11803699999999973
v 0.019427000000000194 0.884625 -0.11803699999999984
v 0.019427000000000305 0.978375 -0.43053699999999984
v 0.019427000000000305 0.884625 -0.43053699999999984
v 0.4569270000000003 0.978375 -0.4305369999999997
v 0.4569270000000003 0.884625 -0.4305369999999997
vt 0.908482 0.634573
vt 0.908222 0.473681
vt 0.950635 0.47360099999999994
vt 0.950895 0.634493
vt 0.997262 0.515521
vt 0.997448 0.630342
vt 0.955035 0.630422
vt 0.954849 0.515601
vt 0.797681 0.473962
vt 0.797959 0.633854
vt 0.752578 0.633934
vt 0.752299 0.4740420000000001
vt 0.955035 0.630422
vt 0.954849 0.515601
vt 0.997262 0.515521
vt 0.997443 0.630369
vt 0.904704 0.634805
vt 0.798354 0.634805
vt 0.798354 0.474148
vt 0.904704 0.474148
vn 0 0 1
vn -1 0 0
vn 0 0 -1
vn 1 0 0
vn 0 1 0
usemtl m_c4230425-bc98-f697-4d7b-c143de351ca5
f 397/765/192 398/766/192 400/767/192 399/768/192
f 398/769/193 401/770/193 402/771/193 400/772/193
f 401/773/194 403/774/194 404/775/194 402/776/194
f 403/777/195 397/778/195 399/779/195 404/780/195
f 397/781/196 403/782/196 401/783/196 398/784/196
